<svg width="107" height="119" viewBox="0 0 107 119" fill="none" xmlns="http://www.w3.org/2000/svg">
<path fill-rule="evenodd" clip-rule="evenodd" d="M0 19.5C0 26.9396 4.16619 33.4061 10.2928 36.6938C8.80669 41.0226 8 45.6671 8 50.5C8 73.9721 27.0279 93 50.5 93H58.5C81.9721 93 101 73.9721 101 50.5C101 45.2963 100.065 40.3109 98.3532 35.703C103.568 32.2031 107 26.2523 107 19.5C107 8.73045 98.2696 0 87.5 0C80.2823 0 73.9805 3.92138 70.6088 9.74987C66.7713 8.61128 62.707 8 58.5 8H50.5C45.6671 8 41.0226 8.80669 36.6938 10.2928C33.4061 4.16619 26.9396 0 19.5 0C8.73045 0 0 8.73045 0 19.5Z" fill="#CA926A"/>
<path d="M8.68464 23.5992C4.77301 19.2988 4.9761 12.6713 9.14369 8.61849C13.3695 4.50907 20.1125 4.55614 24.2805 8.72416L29.533 13.9766C30.1395 14.5831 30.0462 15.5908 29.3496 16.0913C24.0015 19.9339 20.298 23.6043 16.1716 29.2593C15.6372 29.9918 14.5625 30.0613 13.9524 29.3905L8.68464 23.5992Z" fill="#ECC79F"/>
<path d="M98.082 22.9714C101.994 18.671 101.791 12.0435 97.623 7.9907C93.3972 3.88128 86.6542 3.92835 82.4862 8.09636L77.2337 13.3488C76.6272 13.9553 76.7204 14.963 77.417 15.4635C82.7652 19.3061 86.4687 22.9765 90.595 28.6315C91.1295 29.364 92.2041 29.4335 92.8142 28.7627L98.082 22.9714Z" fill="#ECC79F"/>
<ellipse cx="54.5" cy="64" rx="24.5" ry="19" fill="#ECC79F"/>
<rect x="53.1" y="59.2" width="2.7" height="10.8" rx="1.35" fill="#3A211F"/>
<ellipse cx="54.9" cy="56.95" rx="8.1" ry="4.95" fill="#3A211F"/>
<circle cx="49.95" cy="55.15" r="1.35" fill="white"/>
<path d="M45 65.95C49.5 70 59.5 70 64 65.95" stroke="#3A211F" stroke-width="2.7" stroke-linecap="round"/>
<circle cx="33" cy="46" r="4" fill="#3A211F"/>
<circle cx="77" cy="46" r="4" fill="#3A211F"/>
<circle cx="23" cy="60" r="5" fill="#FFCEB9"/>
<circle cx="86" cy="60" r="5" fill="#FFCEB9"/>
<path fill-rule="evenodd" clip-rule="evenodd" d="M43.4718 98.6056C46.2351 98.6056 48.7459 97.6465 50.743 96.5216C50.2244 99.3625 50.2676 101.915 50.3084 104.326L50.3172 104.859C50.377 108.689 50.3325 112.237 48.1656 116.633C47.7899 117.395 48.1032 118.318 48.8654 118.694C49.6277 119.069 50.5502 118.756 50.9259 117.994C53.4313 112.911 53.4557 108.744 53.3942 104.81L53.3869 104.357C53.3354 101.22 53.2865 98.2429 54.3149 94.796C56.2058 97.8314 57.0822 100.814 57.962 103.822L57.9855 103.902C59.0083 107.398 60.0706 111.03 62.9746 114.288C63.5401 114.922 64.5127 114.978 65.1471 114.413C65.7815 113.847 65.8374 112.875 65.2719 112.24C62.8687 109.544 61.9635 106.539 60.9157 102.958L60.8893 102.867C60.3862 101.147 59.8512 99.3184 59.0803 97.4232C60.7032 98.1146 62.5511 98.6056 64.5282 98.6056C67.7265 98.6056 70.6976 97.9847 72.9266 96.9115C75.0461 95.891 77 94.1839 77 91.8028C77 89.4217 75.0461 87.7147 72.9266 86.6941C70.6976 85.621 67.7265 85 64.5282 85C59.9032 85 55.9853 87.6872 54 89.3407C52.0147 87.6872 48.0968 85 43.4718 85C40.2735 85 37.3024 85.621 35.0734 86.6941C32.9539 87.7147 31 89.4217 31 91.8028C31 94.1839 32.9539 95.891 35.0734 96.9115C37.3024 97.9847 40.2735 98.6056 43.4718 98.6056ZM36.4085 89.467C34.5711 90.3516 34.0775 91.2766 34.0775 91.8028C34.0775 92.329 34.5711 93.254 36.4085 94.1387C38.1366 94.9707 40.632 95.5282 43.4718 95.5282C47.0749 95.5282 50.3274 93.3263 52.0766 91.8614L52.1114 91.7734C50.3707 90.3088 47.0989 88.0775 43.4718 88.0775C40.632 88.0775 38.1366 88.6349 36.4085 89.467ZM56.2368 92.1184C56.1446 91.9851 56.0506 91.8517 55.9546 91.7182C57.7111 90.2534 60.9464 88.0775 64.5282 88.0775C67.368 88.0775 69.8634 88.6349 71.5915 89.467C73.429 90.3516 73.9225 91.2766 73.9225 91.8028C73.9225 92.329 73.429 93.254 71.5915 94.1387C69.8634 94.9707 67.368 95.5282 64.5282 95.5282C61.1304 95.5282 58.0444 93.5701 56.2368 92.1184Z" fill="#513831"/>
</svg>
