<svg width="133" height="122" viewBox="0 0 133 122" fill="none" xmlns="http://www.w3.org/2000/svg">
<path fill-rule="evenodd" clip-rule="evenodd" d="M55.7254 76.1934C62.6416 70.3052 67 61.7124 67 52.1429C67 34.3908 52.0015 20 33.5 20C14.9985 20 0 34.3908 0 52.1429C0 56.7729 1.0203 61.1744 2.85694 65.1514C1.65783 67.6114 1 70.2867 1 73.0844C1 85.1881 13.3122 95 28.5 95C42.3635 95 53.8309 86.8246 55.7254 76.1934Z" fill="#D9DEE5"/>
<path d="M58.7351 74.701C65.0319 69.5978 69 62.1507 69 53.8571C69 38.4721 55.3447 26 38.5 26C21.6553 26 8 38.4721 8 53.8571C8 57.8699 8.92893 61.6845 10.6011 65.1313C9.50937 67.2632 8.91045 69.5818 8.91045 72.0065C8.91045 82.4963 20.12 91 33.9478 91C46.5697 91 57.0102 83.9147 58.7351 74.701Z" fill="#FFDED0"/>
<path fill-rule="evenodd" clip-rule="evenodd" d="M78.2746 76.1934C71.3584 70.3052 67 61.7124 67 52.1429C67 34.3908 81.9985 20 100.5 20C119.002 20 134 34.3908 134 52.1429C134 56.7729 132.98 61.1744 131.143 65.1514C132.342 67.6114 133 70.2867 133 73.0844C133 85.1881 120.688 95 105.5 95C91.6365 95 80.1691 86.8246 78.2746 76.1934Z" fill="#D9DEE5"/>
<path d="M76.2649 74.701C69.9681 69.5978 66 62.1507 66 53.8571C66 38.4721 79.6553 26 96.5 26C113.345 26 127 38.4721 127 53.8571C127 57.8699 126.071 61.6845 124.399 65.1313C125.491 67.2632 126.09 69.5818 126.09 72.0065C126.09 82.4963 114.88 91 101.052 91C88.4303 91 77.9898 83.9147 76.2649 74.701Z" fill="#FFDED0"/>
<path fill-rule="evenodd" clip-rule="evenodd" d="M86.7156 102.682C84.7452 101.643 85.5719 99.1271 87.7033 98.4792C106.85 92.6589 108 77.4034 108 59.5C108 36.5802 89.6437 18 67 18C44.3563 18 26 36.5802 26 59.5C26 79.6611 27.4586 96.4644 54.4326 100.217C55.6821 100.391 56.7184 101.299 57.084 102.506C62.9393 121.839 80.299 121.349 98.4519 120.837C99.0332 120.821 99.6154 120.804 100.198 120.788C101.135 120.763 101.833 119.892 101.56 118.995C101.283 118.082 101.013 117.496 100.779 116.989C100.344 116.045 100.036 115.376 100.042 113.379C100.048 111.464 100.35 110.813 100.772 109.905C100.861 109.714 100.955 109.512 101.052 109.285C101.755 107.645 100.445 105.95 98.6735 105.733C93.2836 105.073 89.4468 104.123 86.7156 102.682Z" fill="#D9DEE5"/>
<path fill-rule="evenodd" clip-rule="evenodd" d="M95.1204 105.344C96.0772 105.508 97.0944 105.657 98.1758 105.795C95.1746 108.962 93.1195 111.704 92.0466 115.188C91.8422 115.851 91.1576 116.189 90.5176 115.941C89.8775 115.693 89.5244 114.954 89.7288 114.291C90.7893 110.848 92.6696 108.102 95.1204 105.344ZM86.8446 102.9C87.6051 103.288 88.4496 103.64 89.3874 103.959C86.5882 106.631 85.4656 108.851 84.0813 112.315C83.8236 112.959 83.1138 113.24 82.4958 112.941C81.8778 112.643 81.5857 111.878 81.8434 111.233C83.1713 107.911 84.3477 105.518 86.8446 102.9ZM81.5013 97.1863C81.8363 98.0235 82.2443 98.7875 82.7411 99.4853C79.2345 102.567 77.7985 104.42 76.3316 108.09C76.0739 108.735 75.364 109.016 74.746 108.717C74.1281 108.418 73.836 107.654 74.0937 107.009C75.7785 102.793 77.5228 100.642 81.3785 97.2799C81.418 97.2455 81.459 97.2143 81.5013 97.1863Z" fill="#B7BFCD"/>
<path d="M55.0343 81C52.6782 123.816 76.0941 121.47 100.195 120.791C101.133 120.765 101.835 119.889 101.545 118.996C100.756 116.563 100.032 116.952 100.041 113.928C100.05 110.903 100.813 110.696 101.611 107.839C101.851 106.978 101.213 106.136 100.324 106.044C79.9651 103.937 80.023 99.0207 80.5 81" stroke="#B4BCCB" stroke-width="1.5" stroke-linecap="round"/>
<ellipse cx="46.5528" cy="72.2341" rx="4.55279" ry="5.23413" fill="#323232"/>
<ellipse cx="47.9148" cy="70.3162" rx="1.20503" ry="1.06567" fill="white"/>
<ellipse rx="4.55279" ry="5.23413" transform="matrix(-1 0 0 1 89.6584 72.2341)" fill="#323232"/>
<ellipse rx="1.20503" ry="1.06567" transform="matrix(-1 0 0 1 91.5926 70.3162)" fill="white"/>
<ellipse cx="42.0975" cy="81.2887" rx="4.09751" ry="2.64342" fill="#FFC4AA"/>
<ellipse cx="93.1364" cy="81.2887" rx="4.09751" ry="2.64342" fill="#FFC4AA"/>
<ellipse rx="1.93269" ry="1.78352" transform="matrix(-0.993902 0.110268 0.117654 0.993055 80.2614 8.99859)" fill="#FFC547"/>
<ellipse rx="1.93269" ry="1.78352" transform="matrix(-0.993902 0.110268 0.117654 0.993055 68.7371 3.17059)" fill="#FFC547"/>
<ellipse rx="1.93269" ry="1.78352" transform="matrix(-0.993902 0.110268 0.117654 0.993055 55.9823 6.06176)" fill="#FFC547"/>
<path d="M80.1174 13.4586L77.8098 25.1651C77.7123 25.66 77.1958 25.9493 76.717 25.7826C69.4874 23.2662 64.1903 22.4345 56.3882 23.3663C55.8786 23.4272 55.4258 23.0226 55.4397 22.5101L55.7834 9.81999C55.8031 9.09262 56.6856 8.74862 57.2004 9.26764L61.8852 13.9906C62.2709 14.3795 62.9186 14.2993 63.1915 13.829L67.3696 6.62781C67.7295 6.0075 68.659 6.11353 68.8787 6.79996L71.607 15.3245C71.7654 15.8193 72.334 16.0523 72.7911 15.8096L78.9094 12.561C79.5266 12.2333 80.2526 12.7728 80.1174 13.4586Z" fill="#FFC547"/>
</svg>
