<svg width="134" height="121" viewBox="0 0 134 121" fill="none" xmlns="http://www.w3.org/2000/svg">
<path d="M93.5499 5.55157C76.7474 24.9821 73.501 36.5868 69.9332 64.3213" stroke="#5EA985" stroke-width="1.84133" stroke-linecap="round"/>
<path d="M91 11.8045C89.783 11.946 88.5496 12.3653 87.4675 12.8455C85.8996 13.5414 86.1315 15.5368 87.8173 15.8544C88.9807 16.0736 90.2774 16.1988 91.4944 16.0573C92.7114 15.9159 93.9447 15.4965 95.0268 15.0163C96.5948 14.3205 96.3628 12.325 94.6771 12.0074C93.5136 11.7883 92.217 11.663 91 11.8045Z" fill="#5EA985"/>
<path d="M83.5549 9.96932C83.7214 11.1832 84.166 12.4076 84.6684 13.4796C85.3964 15.0329 87.3867 14.7599 87.6695 13.068C87.8646 11.9003 87.9631 10.6013 87.7966 9.38749C87.6301 8.17363 87.1855 6.94921 86.6831 5.8772C85.9552 4.32389 83.9649 4.5969 83.6821 6.28885C83.4869 7.45654 83.3884 8.75547 83.5549 9.96932Z" fill="#5EA985"/>
<path d="M84.7744 21.403C83.5574 21.5445 82.3241 21.9638 81.242 22.4441C79.674 23.1399 79.906 25.1354 81.5918 25.4529C82.7552 25.6721 84.0518 25.7973 85.2688 25.6559C86.4859 25.5144 87.7192 25.095 88.8013 24.6148C90.3693 23.919 90.1373 21.9235 88.4515 21.606C87.2881 21.3868 85.9915 21.2616 84.7744 21.403Z" fill="#5EA985"/>
<path d="M76.4113 20.8816C76.8648 22.0198 77.5907 23.1014 78.3361 24.0212C79.4161 25.354 81.2824 24.6105 81.1501 22.9002C81.0589 21.7198 80.8422 20.4353 80.3888 19.2971C79.9354 18.1589 79.2094 17.0772 78.4641 16.1574C77.384 14.8247 75.5177 15.5682 75.65 17.2785C75.7412 18.4588 75.9579 19.7434 76.4113 20.8816Z" fill="#5EA985"/>
<path d="M79.3068 31.9406C78.1024 32.1656 76.9009 32.6689 75.8545 33.2226C74.3382 34.0248 74.7071 35.9996 76.4108 36.2002C77.5866 36.3387 78.8887 36.3742 80.0931 36.1492C81.2975 35.9242 82.499 35.4208 83.5454 34.8672C85.0617 34.0649 84.6927 32.0902 82.9891 31.8896C81.8133 31.7511 80.5112 31.7155 79.3068 31.9406Z" fill="#5EA985"/>
<path d="M71.8038 32.036C72.416 33.0973 73.2897 34.0634 74.1595 34.8666C75.4197 36.0305 77.1599 35.0267 76.7834 33.3531C76.5235 32.1981 76.1247 30.958 75.5125 29.8967C74.9003 28.8354 74.0265 27.8692 73.1568 27.066C71.8966 25.9022 70.1564 26.9059 70.5329 28.5795C70.7927 29.7346 71.1916 30.9746 71.8038 32.036Z" fill="#5EA985"/>
<path d="M76.4105 43.1573C75.2292 43.4827 74.0743 44.0852 73.0781 44.7248C71.6346 45.6517 72.1682 47.5884 73.8826 47.6452C75.0659 47.6844 76.3664 47.6104 77.5477 47.2849C78.7289 46.9595 79.8838 46.357 80.88 45.7174C82.3235 44.7905 81.7899 42.8538 80.0755 42.797C78.8922 42.7578 77.5917 42.8318 76.4105 43.1573Z" fill="#5EA985"/>
<path d="M67.9488 44.4921C68.6821 45.4736 69.664 46.3296 70.6226 47.0244C72.0116 48.0311 73.6209 46.8286 73.0491 45.2113C72.6546 44.0951 72.1119 42.9108 71.3785 41.9293C70.6451 40.9478 69.6633 40.0917 68.7047 39.397C67.3157 38.3903 65.7064 39.5928 66.2781 41.2101C66.6727 42.3263 67.2154 43.5106 67.9488 44.4921Z" fill="#5EA985"/>
<path d="M102.923 16.2438C87.1431 36.5139 84.4987 48.2704 82.3639 76.1518" stroke="#5EA985" stroke-width="1.84133" stroke-linecap="round"/>
<path d="M104.246 8.70978C103.089 9.99128 102.29 11.6618 101.741 13.2891C100.791 16.1016 103.501 18.3527 106.121 16.958C107.597 16.1723 109.094 15.1625 110.225 13.9094C111.319 12.6979 112.152 11.1705 112.777 9.67111C113.937 6.88604 111.349 4.40497 108.616 5.68347C107.017 6.4314 105.407 7.42496 104.246 8.70978Z" fill="#5EA985"/>
<path d="M100.698 22.6198C99.4901 22.8238 98.28 23.306 97.2241 23.8413C95.694 24.617 96.0285 26.5979 97.7283 26.8282C98.9015 26.9872 100.203 27.0455 101.411 26.8415C102.619 26.6375 103.829 26.1553 104.885 25.62C106.415 24.8443 106.081 22.8634 104.381 22.6331C103.208 22.4741 101.906 22.4158 100.698 22.6198Z" fill="#5EA985"/>
<path d="M93.1685 21.1705C93.3973 22.3742 93.9044 23.5741 94.4613 24.6188C95.2683 26.1325 97.2419 25.7574 97.4372 24.0531C97.572 22.8769 97.6034 21.5747 97.3747 20.371C97.1459 19.1673 96.6388 17.9674 96.0818 16.9227C95.2749 15.409 93.3013 15.7841 93.106 17.4884C92.9712 18.6645 92.9397 19.9668 93.1685 21.1705Z" fill="#5EA985"/>
<path d="M94.9753 32.5262C93.7671 32.7302 92.557 33.2124 91.5011 33.7477C89.971 34.5234 90.3055 36.5043 92.0053 36.7346C93.1785 36.8936 94.4799 36.9519 95.688 36.7479C96.8961 36.544 98.1062 36.0617 99.1622 35.5264C100.692 34.7507 100.358 32.7698 98.6579 32.5395C97.4847 32.3805 96.1834 32.3222 94.9753 32.5262Z" fill="#5EA985"/>
<path d="M86.5964 32.4361C87.1078 33.5495 87.8885 34.5923 88.6802 35.4725C89.8275 36.7478 91.653 35.9093 91.4329 34.208C91.2809 33.0339 90.9984 31.7623 90.487 30.6489C89.9755 29.5355 89.1948 28.4927 88.4031 27.6125C87.2559 26.3372 85.4304 27.1758 85.6505 28.877C85.8024 30.0511 86.0849 31.3227 86.5964 32.4361Z" fill="#5EA985"/>
<path d="M90.0575 43.3313C88.8663 43.6181 87.6923 44.1826 86.6758 44.7894C85.2028 45.6687 85.673 47.6218 87.3847 47.7344C88.5661 47.8122 89.8683 47.7806 91.0595 47.4939C92.2507 47.2071 93.4247 46.6426 94.4412 46.0358C95.9142 45.1565 95.444 43.2034 93.7323 43.0907C92.551 43.013 91.2487 43.0446 90.0575 43.3313Z" fill="#5EA985"/>
<path d="M82.5694 43.813C83.2354 44.8413 84.1578 45.7612 85.0677 46.5186C86.3862 47.616 88.0724 46.5239 87.6102 44.8719C87.2912 43.7318 86.829 42.5139 86.163 41.4855C85.4969 40.4572 84.5746 39.5373 83.6646 38.7799C82.3462 37.6825 80.66 38.7746 81.1222 40.4266C81.4411 41.5667 81.9033 42.7846 82.5694 43.813Z" fill="#5EA985"/>
<path d="M87.7427 54.6823C86.5798 55.0682 85.4574 55.7294 84.4954 56.4194C83.1016 57.4194 83.7342 59.3261 85.4493 59.2945C86.633 59.2727 87.928 59.1318 89.0909 58.746C90.2538 58.3601 91.3762 57.6989 92.3381 57.0089C93.732 56.0089 93.0994 54.1022 91.3842 54.1338C90.2006 54.1556 88.9055 54.2965 87.7427 54.6823Z" fill="#5EA985"/>
<path d="M79.3609 56.4511C80.1439 57.3935 81.1685 58.1979 82.1616 58.8424C83.6006 59.7762 85.1458 58.4925 84.4916 56.9067C84.04 55.8123 83.4371 54.6576 82.6541 53.7152C81.8712 52.7727 80.8466 51.9683 79.8535 51.3239C78.4145 50.3901 76.8692 51.6738 77.5235 53.2596C77.975 54.354 78.578 55.5087 79.3609 56.4511Z" fill="#5EA985"/>
<path d="M16.5233 24.8197C9.73158 30.4129 24.8242 69.3429 24.8242 69.3429L56.1414 44.4401C56.1414 44.4401 22.9376 19.5373 16.5233 24.8197Z" fill="#C4C4C4"/>
<path d="M16.5233 24.8197C9.73158 30.4129 24.8242 69.3429 24.8242 69.3429L56.1414 44.4401C56.1414 44.4401 22.9376 19.5373 16.5233 24.8197Z" fill="#EF8F35"/>
<path fill-rule="evenodd" clip-rule="evenodd" d="M19.3181 53.2509C15.8456 41.8296 12.6794 27.9853 16.5233 24.8197C19.9699 21.9813 31.151 27.858 40.7597 33.9035C32.1171 30.3848 23.4412 27.8863 20.395 30.395C16.9956 33.1944 17.6479 43.2716 19.3181 53.2509Z" fill="#C4C4C4"/>
<path fill-rule="evenodd" clip-rule="evenodd" d="M19.3181 53.2509C15.8456 41.8296 12.6794 27.9853 16.5233 24.8197C19.9699 21.9813 31.151 27.858 40.7597 33.9035C32.1171 30.3848 23.4412 27.8863 20.395 30.395C16.9956 33.1944 17.6479 43.2716 19.3181 53.2509Z" fill="#542016"/>
<path d="M112.477 24.8197C119.268 30.4129 104.176 69.3429 104.176 69.3429L72.8586 44.4401C72.8586 44.4401 106.062 19.5373 112.477 24.8197Z" fill="#C4C4C4"/>
<path d="M112.477 24.8197C119.268 30.4129 104.176 69.3429 104.176 69.3429L72.8586 44.4401C72.8586 44.4401 106.062 19.5373 112.477 24.8197Z" fill="#EF8F35"/>
<path fill-rule="evenodd" clip-rule="evenodd" d="M109.682 53.2507C113.154 41.8295 116.321 27.9853 112.477 24.8197C109.03 21.9813 97.849 27.858 88.2403 33.9035C96.8829 30.3848 105.559 27.8863 108.605 30.395C112.004 33.1944 111.352 43.2715 109.682 53.2507Z" fill="#C4C4C4"/>
<path fill-rule="evenodd" clip-rule="evenodd" d="M109.682 53.2507C113.154 41.8295 116.321 27.9853 112.477 24.8197C109.03 21.9813 97.849 27.858 88.2403 33.9035C96.8829 30.3848 105.559 27.8863 108.605 30.395C112.004 33.1944 111.352 43.2715 109.682 53.2507Z" fill="#542016"/>
<path d="M73.3662 20.317C75.3637 21.2021 76.4601 23.6684 75.8151 25.8258L72.622 36.5051C72.0065 38.5636 70.0279 39.597 68.1126 38.9185C67.6543 39.6866 66.9849 40.3187 66.1628 40.683C64.1653 41.568 62.023 40.5366 61.378 38.3792L58.1849 27.6999C57.5399 25.5426 58.6363 23.0762 60.6338 22.1912C62.6313 21.3062 64.7735 22.3376 65.4186 24.4949L66.7198 28.8469L68.5814 22.6208C69.2265 20.4634 71.3687 19.432 73.3662 20.317Z" fill="#EF8F35"/>
<path d="M17.0195 92.2545C16.9703 92.1307 16.8757 92.0312 16.7559 91.9774C8.27843 88.1648 1.25253 80.0552 0.0248777 76.5224C-0.0783341 76.2253 0.153592 75.9431 0.462448 75.943C5.61537 75.9405 6.85029 75.8712 10.9427 73.9482C11.262 73.7982 11.3296 73.3641 11.0711 73.121L7.08503 69.3724C6.74093 69.0488 6.9895 68.4215 7.45634 68.3883C9.33681 68.2544 11.6617 67.6795 14.187 66.8332C14.3588 66.7756 14.4855 66.6253 14.5189 66.444C18.4489 45.1274 36.791 29 58.8249 29H71.7062C93.2648 29 111.289 44.4392 115.738 65.072C115.773 65.237 115.887 65.3746 116.041 65.4364C119.989 67.0215 123.754 68.1898 126.543 68.3883C127.01 68.4216 127.258 69.0488 126.914 69.3724L122.928 73.121C122.669 73.3641 122.737 73.7982 123.056 73.9482C127.149 75.8712 128.384 75.9405 133.537 75.943C133.845 75.9431 134.078 76.2223 133.975 76.5194C132.563 80.5925 123.43 90.7617 113.252 93.3973C113.102 93.4361 112.978 93.5426 112.915 93.6868C105.895 109.78 90.0847 121 71.7062 121H58.8249C39.9059 121 23.7087 109.11 17.0195 92.2545Z" fill="#EF8F35"/>
<g filter="url(#filter0_f_226_5)">
<ellipse cx="29" cy="81.4" rx="9" ry="5.4" fill="#FF6E41"/>
<ellipse cx="101" cy="81.4" rx="9" ry="5.4" fill="#FF6E41"/>
</g>
<path fill-rule="evenodd" clip-rule="evenodd" d="M113.139 93.4417C113.041 93.495 112.961 93.5807 112.915 93.6868C105.895 109.78 90.0847 121 71.7062 121H58.8249C39.9127 121 23.7203 109.119 17.0266 92.2726C26.8534 81.1659 46.2953 74 65 74C84.3532 74 103.962 81.6714 113.139 93.4417Z" fill="#FFCEB9"/>
<ellipse rx="6.4" ry="8" transform="matrix(-1 0 0 1 35.4 69)" fill="#542016"/>
<ellipse rx="2.4" ry="2.8" transform="matrix(-1 0 0 1 37 66.2)" fill="white"/>
<circle r="1.2" transform="matrix(-1 0 0 1 33.4 70.2)" fill="white"/>
<ellipse rx="6.4" ry="8" transform="matrix(-1 0 0 1 97.4 69)" fill="#542016"/>
<ellipse rx="2.4" ry="2.8" transform="matrix(-1 0 0 1 99 66.2)" fill="white"/>
<circle r="1.2" transform="matrix(-1 0 0 1 95.4 70.2)" fill="white"/>
<rect x="65.2474" y="76.4421" width="2.23684" height="9.66316" rx="1.11842" fill="#542016"/>
<ellipse cx="66.3211" cy="75" rx="7.60526" ry="5" fill="#542016"/>
<circle cx="62.429" cy="72.8184" r="1.20789" fill="white"/>
<path d="M58 83.4816C62.0263 87.1052 70.9737 87.1052 75 83.4816" stroke="#542016" stroke-width="2.23684" stroke-linecap="round"/>
<path d="M92.8526 33.4723C92.9689 33.3741 93.0817 33.2696 93.1905 33.1587C95.0496 31.2634 95.0306 28.23 93.1481 26.3834C91.2655 24.5368 88.2323 24.5762 86.3732 26.4715C86.1927 26.6555 86.03 26.8502 85.8849 27.0535C85.4232 25.2525 83.9655 23.798 82.0555 23.4649C79.4716 23.0142 77.0384 24.7864 76.6208 27.423C76.3981 28.8287 76.7932 30.1963 77.6022 31.2351C77.4057 31.2462 77.2077 31.2692 77.0093 31.3046C74.3812 31.7729 72.6562 34.2398 73.1565 36.8145C73.6568 39.3892 76.1929 41.0967 78.821 40.6284C78.9629 40.6031 79.1021 40.572 79.2385 40.5354C79.2045 40.6724 79.1761 40.8122 79.1535 40.9545C78.7359 43.5912 80.4919 46.0939 83.0758 46.5446C85.6596 46.9952 88.0928 45.223 88.5105 42.5864C88.5476 42.3522 88.5675 42.1191 88.5713 41.8884C89.5697 42.5073 90.797 42.7756 92.0451 42.5531C94.6732 42.0848 96.3981 39.6179 95.8979 37.0432C95.571 35.3611 94.3752 34.0492 92.8526 33.4723Z" fill="#F6D384"/>
<circle cx="85.1757" cy="34.8961" r="3.60188" transform="rotate(69.1033 85.1757 34.8961)" fill="white" fill-opacity="0.6"/>
<defs>
<filter id="filter0_f_226_5" x="14" y="70" width="102" height="22.8" filterUnits="userSpaceOnUse" color-interpolation-filters="sRGB">
<feFlood flood-opacity="0" result="BackgroundImageFix"/>
<feBlend mode="normal" in="SourceGraphic" in2="BackgroundImageFix" result="shape"/>
<feGaussianBlur stdDeviation="3" result="effect1_foregroundBlur_226_5"/>
</filter>
</defs>
</svg>
