<svg width="120" height="129" viewBox="0 0 120 129" fill="none" xmlns="http://www.w3.org/2000/svg">
<ellipse rx="15.6705" ry="9.26049" transform="matrix(0.864804 0.502109 0.509896 -0.860236 20.3925 34.1284)" fill="#FFDE73"/>
<ellipse rx="10.8288" ry="6.39925" transform="matrix(0.864804 0.502109 0.509896 -0.860236 20.3925 34.1284)" fill="#FFC2A9"/>
<ellipse rx="15.6705" ry="9.26049" transform="matrix(-0.864804 0.502109 -0.509896 -0.860236 99.1627 34.1284)" fill="#FFDE73"/>
<ellipse rx="10.8288" ry="6.39925" transform="matrix(-0.864804 0.502109 -0.509896 -0.860236 99.1627 34.1284)" fill="#FFC2A9"/>
<path d="M29 10H34L36 43H27L29 10Z" fill="#FFDE73"/>
<circle cx="31.5" cy="8.5" r="8.5" fill="#FFDE73"/>
<path d="M86 10H91L93 43H84L86 10Z" fill="#FFDE73"/>
<circle cx="88.5" cy="8.5" r="8.5" fill="#FFDE73"/>
<rect x="18" y="19" width="85" height="105" rx="42.5" fill="#FFDE73"/>
<path fill-rule="evenodd" clip-rule="evenodd" d="M61.9192 19.0233C72.9551 19.3854 82.9265 23.9549 90.2811 31.1795C88.2969 37.4528 82.4295 42 75.5 42C66.9396 42 60 35.0604 60 26.5C60 23.7889 60.6961 21.2403 61.9192 19.0233Z" fill="#C37D2C"/>
<path fill-rule="evenodd" clip-rule="evenodd" d="M23.2828 40.9623C26.7003 34.7826 31.6122 29.5444 37.5309 25.7354C39.0716 27.5625 40 29.9228 40 32.5C40 38.299 35.299 43 29.5 43C27.1733 43 25.0233 42.2432 23.2828 40.9623Z" fill="#C37D2C"/>
<path fill-rule="evenodd" clip-rule="evenodd" d="M102.928 59.0004C102.976 59.8274 103 60.6609 103 61.5V73C103 73 103 73 103 73C99.134 73 96 69.866 96 66C96 62.1581 99.095 59.0391 102.928 59.0004Z" fill="#C37D2C"/>
<path fill-rule="evenodd" clip-rule="evenodd" d="M18.0723 83.9996C18.0243 83.1725 18 82.3391 18 81.5V70C21.866 70 25 73.134 25 77C25 80.8419 21.905 83.9609 18.0723 83.9996Z" fill="#C37D2C"/>
<ellipse cx="31" cy="72.4" rx="4" ry="2.4" fill="#ED653B" fill-opacity="0.6"/>
<ellipse cx="90" cy="72.4" rx="4" ry="2.4" fill="#ED653B" fill-opacity="0.6"/>
<circle r="9" transform="matrix(-1 0 0 1 37 60)" fill="#333333"/>
<circle r="3" transform="matrix(-1 0 0 1 40 57)" fill="white"/>
<circle r="1.5" transform="matrix(-1 0 0 1 35.5 62.5)" fill="white"/>
<circle cx="84" cy="60" r="9" fill="#333333"/>
<circle cx="81" cy="57" r="3" fill="white"/>
<circle cx="85.5" cy="62.5" r="1.5" fill="white"/>
<ellipse cx="60" cy="99.5" rx="46" ry="27.5" fill="#FFCEB9"/>
<ellipse cx="40" cy="89.5" rx="3" ry="4.5" fill="#333333"/>
<ellipse cx="83" cy="89.5" rx="3" ry="4.5" fill="#333333"/>
<path d="M93.6997 112.228C91.2836 108.501 85.1127 106.712 83.3408 106.265C83.0732 106.197 82.8139 106.365 82.7664 106.637C82.4518 108.438 81.5667 114.801 83.9829 118.528C86.3991 122.255 92.5699 124.044 94.3418 124.491C94.6094 124.559 94.8687 124.391 94.9162 124.119C95.2308 122.319 96.1159 115.955 93.6997 112.228Z" fill="#CCE772"/>
<path d="M81.5869 119.274C82.8233 115.688 80.8267 110.617 80.1573 109.088C80.0466 108.835 79.7518 108.733 79.5088 108.864C78.0394 109.656 73.3413 112.419 72.1049 116.005C70.8685 119.591 72.8651 124.663 73.5345 126.192C73.6452 126.444 73.94 126.546 74.183 126.415C75.6524 125.624 80.3505 122.86 81.5869 119.274Z" fill="#CCE772"/>
<path d="M37 103C46 117.5 78 117.5 86.5 103" stroke="#333333" stroke-width="2.5" stroke-linecap="round" stroke-linejoin="round"/>
<path d="M60.2047 50.8444C62.5955 37.919 66.2711 32.7546 76.4431 21.9892" stroke="#CCE772" stroke-width="1.24764" stroke-linecap="round"/>
<path d="M57.4845 55.123C57.7547 52.6375 60.275 50.0621 60.275 50.0621C60.275 50.0621 61.8946 52.9151 61.6244 55.4007C61.3542 57.8862 59.1348 60.5515 59.1348 60.5515C59.1348 60.5515 57.2144 57.6085 57.4845 55.123Z" fill="#CCE772"/>
<path d="M62.4351 48.2211C61.4709 46.8067 61.3528 44.6072 61.3528 44.6072C61.3528 44.6072 63.3755 45.5479 64.3397 46.9623C65.3039 48.3767 65.422 50.5762 65.422 50.5762C65.422 50.5762 63.3993 49.6355 62.4351 48.2211Z" fill="#CCE772"/>
<path d="M57.6873 45.8483C59.23 44.871 61.5256 44.6831 61.5256 44.6831C61.5256 44.6831 60.3962 46.6651 58.8535 47.6425C57.3108 48.6198 55.0152 48.8077 55.0152 48.8077C55.0152 48.8077 56.1446 46.8257 57.6873 45.8483Z" fill="#CCE772"/>
<path d="M64.6144 42.2229C63.6502 40.8085 63.5321 38.609 63.5321 38.609C63.5321 38.609 65.5548 39.5497 66.519 40.9641C67.4832 42.3785 67.6013 44.578 67.6013 44.578C67.6013 44.578 65.5787 43.6373 64.6144 42.2229Z" fill="#CCE772"/>
<path d="M59.7236 38.9724C61.4452 38.3687 63.6906 38.7161 63.6906 38.7161C63.6906 38.7161 62.1135 40.404 60.3919 41.0077C58.6702 41.6115 56.4249 41.2641 56.4249 41.2641C56.4249 41.2641 58.0019 39.5762 59.7236 38.9724Z" fill="#CCE772"/>
<path d="M67.5708 36.9379C66.7139 35.4575 66.7542 33.2471 66.7542 33.2471C66.7542 33.2471 68.697 34.3236 69.554 35.804C70.4109 37.2844 70.3706 39.4948 70.3706 39.4948C70.3706 39.4948 68.4277 38.4183 67.5708 36.9379Z" fill="#CCE772"/>
<path d="M62.6297 33.3348C64.3661 32.7784 66.5965 33.189 66.5965 33.189C66.5965 33.189 64.9718 34.8348 63.2354 35.3912C61.4989 35.9475 59.2685 35.537 59.2685 35.537C59.2685 35.537 60.8933 33.8912 62.6297 33.3348Z" fill="#CCE772"/>
<path d="M71.4388 31.3327C70.7182 29.7813 70.9513 27.5719 70.9513 27.5719C70.9513 27.5719 72.7844 28.8069 73.505 30.3583C74.2257 31.9097 73.9926 34.1191 73.9926 34.1191C73.9926 34.1191 72.1595 32.884 71.4388 31.3327Z" fill="#CCE772"/>
<path d="M67.2307 27.6424C68.9671 27.086 71.1975 27.4966 71.1975 27.4966C71.1975 27.4966 69.5727 29.1423 67.8363 29.6987C66.0999 30.2551 63.8695 29.8445 63.8695 29.8445C63.8695 29.8445 65.4942 28.1987 67.2307 27.6424Z" fill="#CCE772"/>
<path d="M90 45.5238C90 42.5783 92.4435 40.1905 95.4576 40.1905C95.8931 40.1905 96.3167 40.2403 96.7227 40.3345C97.2012 37.8664 99.4199 36 102.085 36C104.698 36 106.882 37.7948 107.417 40.1919C107.459 40.1909 107.5 40.1905 107.542 40.1905C110.557 40.1905 113 42.5783 113 45.5238C113 49.1005 110.033 52 106.373 52H96.6271C92.9671 52 90 49.1005 90 45.5238Z" fill="white"/>
<path d="M6 56.3333C6 53.756 8.12475 51.6667 10.7458 51.6667C11.1244 51.6667 11.4928 51.7103 11.8458 51.7927C12.2619 49.6331 14.1912 48 16.5085 48C18.7809 48 20.6802 49.5705 21.1453 51.6679C21.1815 51.6671 21.2178 51.6667 21.2542 51.6667C23.8752 51.6667 26 53.756 26 56.3333C26 59.4629 23.4199 62 20.2373 62H11.7627C8.58005 62 6 59.4629 6 56.3333Z" fill="white"/>
</svg>
