<svg width="118" height="130" viewBox="0 0 118 130" fill="none" xmlns="http://www.w3.org/2000/svg">
<path d="M5.34297 61.7377C10.0828 38.3322 24.0831 28.5175 40.5423 21.4938C41.1379 21.2397 41.8117 21.6158 41.9129 22.2554L55.8999 110.681C55.9609 111.067 55.7889 111.455 55.4636 111.671C40.4097 121.67 28.5886 128.026 12.1986 129.814C11.132 129.93 10.1698 129.158 10.1168 128.086C9.79775 121.637 12.065 116.168 14.7388 111.069C15.1966 110.196 14.2631 109.234 13.3849 109.681L6.23635 113.326C5.65538 113.622 4.9497 113.289 4.82575 112.649C3.23271 104.421 4.88104 98.6677 8.41948 91.0878C8.82141 90.2268 7.92042 89.3225 7.06479 89.7357L1.56835 92.3902C0.873237 92.7259 0.0777814 92.1771 0.1528 91.4089C1.35215 79.126 4.74579 71.8578 13.6634 64.1622C14.4184 63.5106 13.9025 62.2261 12.9094 62.3182L6.4055 62.921C5.74561 62.9822 5.21143 62.3872 5.34297 61.7377Z" fill="#4D3A2A"/>
<g style="mix-blend-mode:multiply">
<path fill-rule="evenodd" clip-rule="evenodd" d="M40.5423 21.4939C24.0831 28.5175 10.0828 38.3322 5.34293 61.7377C5.21139 62.3873 5.74557 62.9822 6.40545 62.921L8.96135 62.6841C8.70352 62.4608 8.56203 62.1081 8.63704 61.7377C13.1922 39.244 26.3004 29.3029 41.9243 22.3281L41.9128 22.2554C41.8117 21.6159 41.1378 21.2397 40.5423 21.4939ZM14.3002 129.556C13.7952 129.255 13.4424 128.723 13.4109 128.086C13.0918 121.637 15.359 116.168 18.0329 111.069C18.4907 110.196 17.5572 109.234 16.6789 109.681L14.8591 110.609C14.8566 110.76 14.8191 110.916 14.7388 111.069C12.0649 116.168 9.79771 121.637 10.1168 128.086C10.1698 129.158 11.132 129.93 12.1985 129.814C12.9074 129.737 13.6077 129.651 14.3002 129.556ZM8.07075 112.39C6.56158 104.3 8.21224 98.5882 11.7136 91.0878C12.1155 90.2268 11.2145 89.3225 10.3589 89.7357L8.51765 90.6249C8.52215 90.7753 8.49206 90.9323 8.41944 91.0878C4.881 98.6677 3.23267 104.421 4.8257 112.649C4.94966 113.289 5.65534 113.622 6.23631 113.326L8.07075 112.39ZM3.44223 91.4852C3.44283 91.46 3.44437 91.4346 3.44687 91.4089C4.64623 79.126 8.03986 71.8578 16.9575 64.1622C17.7125 63.5106 17.1966 62.2262 16.2035 62.3182L13.6548 62.5544C14.0979 62.9421 14.1911 63.7068 13.6633 64.1622C4.74575 71.8578 1.35211 79.126 0.152757 91.4089C0.0777384 92.1772 0.873194 92.7259 1.56831 92.3902L3.44223 91.4852Z" fill="#4D3A2A"/>
</g>
<path d="M22.9275 28.4858C20.9613 22.374 25.4361 12.2975 27.4739 8.20638C27.9739 7.20268 29.2075 6.86846 30.1476 7.47958C33.9014 9.91959 42.6128 16.0891 44.5513 21.9392C47.125 29.7059 38.5267 41.4694 38.5267 41.4694C38.5267 41.4694 25.3974 36.1631 22.9275 28.4858Z" fill="#CB9C6F"/>
<path d="M27.4999 29C24.4605 23.832 28.1638 15.8718 29.4883 13.3526C29.7283 12.896 30.2752 12.7309 30.7316 12.9755C33.1813 14.2883 40.4579 18.5814 41.9999 24C43.9251 30.7648 41.1646 41.2099 41.1646 41.2099C41.1646 41.2099 30.2911 33.7459 27.4999 29Z" fill="#FEF2E7"/>
<path d="M115.732 28.4858C117.698 22.374 113.223 12.2975 111.185 8.20638C110.685 7.20268 109.452 6.86846 108.511 7.47958C104.758 9.91959 96.0462 16.0891 94.1077 21.9392C91.534 29.7059 100.132 41.4694 100.132 41.4694C100.132 41.4694 113.262 36.1631 115.732 28.4858Z" fill="#CB9C6F"/>
<path d="M111.159 29C114.199 23.832 110.495 15.8718 109.171 13.3526C108.931 12.896 108.384 12.7309 107.927 12.9755C105.478 14.2883 98.2012 18.5814 96.6591 24C94.734 30.7648 97.4944 41.2099 97.4944 41.2099C97.4944 41.2099 108.368 33.7459 111.159 29Z" fill="#FEF2E7"/>
<rect x="23" y="18" width="90" height="103.493" rx="40" fill="#CB9C6F"/>
<path fill-rule="evenodd" clip-rule="evenodd" d="M109.228 98.4725C102.842 112.075 89.0209 121.493 73.0001 121.493H63.0001C46.9792 121.493 33.1581 112.075 26.7721 98.4725C31.1255 85.9711 43.0151 77 57.0001 77H79.0001C92.985 77 104.875 85.9711 109.228 98.4725Z" fill="#FEF2E7"/>
<circle cx="48.5" cy="94.5" r="2.5" fill="#1A1A1A"/>
<circle cx="89.2893" cy="94.5" r="2.5" fill="#1A1A1A"/>
<circle cx="39.1738" cy="100.87" r="4" fill="#FEB1AA"/>
<circle cx="97.1738" cy="100.87" r="4" fill="#FEB1AA"/>
<ellipse rx="6.60326" ry="7.54658" transform="matrix(-0.965926 -0.258819 -0.258819 0.965926 41.3315 69.9985)" fill="#181818"/>
<circle cx="43.5457" cy="68.2353" r="2.4287" transform="rotate(15 43.5457 68.2353)" fill="white"/>
<circle cx="40.413" cy="72.8744" r="1.45722" transform="rotate(15 40.413 72.8744)" fill="white"/>
<ellipse cx="96.2167" cy="69.9985" rx="6.60326" ry="7.54658" transform="rotate(-15 96.2167 69.9985)" fill="#181818"/>
<circle r="2.4287" transform="matrix(-0.965926 0.258819 0.258819 0.965926 94.0025 68.2353)" fill="white"/>
<circle r="1.45722" transform="matrix(-0.965926 0.258819 0.258819 0.965926 97.1352 72.8744)" fill="white"/>
<path d="M90.8035 110.326C87.7681 107.102 80.6992 107.005 80.6992 107.005C80.6992 107.005 80.3696 114.067 83.405 117.291C85.7512 119.783 90.5069 120.407 92.5458 120.562C93.0837 120.603 93.5254 120.187 93.5171 119.647C93.4855 117.603 93.1497 112.818 90.8035 110.326Z" fill="#34876F"/>
<path d="M70.9245 113.871C72.5535 110.614 78.6182 109.129 78.6182 109.129C78.6182 109.129 81.0663 114.873 79.4373 118.129C78.1779 120.647 74.2677 122.105 72.5578 122.638C72.0902 122.783 71.6054 122.541 71.4416 122.079C70.8424 120.392 69.6652 116.388 70.9245 113.871Z" fill="#34876F"/>
<path d="M53.6086 103.71C59.2582 114.068 79.3454 114.068 84.6811 103.71" stroke="#181818" stroke-width="1.94203" stroke-linecap="round" stroke-linejoin="round"/>
<path d="M41 19C50.5643 6.87655 69.6477 10.0478 84.1846 15.2348C96.6998 19.7004 104.293 29.538 106.992 37.6382C109.852 44.5587 106.4 51.8646 99.4919 53.7497C96.1987 54.6484 92.6538 54.2082 89.5064 52.7594C87.6888 54.1449 85.3093 56 82.9723 56C78.6518 56 75.0902 52.1964 73.1106 48.1179C71.4082 50.449 69.3817 52.7594 66.959 52.7594C63.7293 52.7594 60.6782 49.3539 58.91 45.4997C56.9346 46.9208 51.796 49.1799 49.3444 49.1799C41.961 49.1799 36 40.9765 36 31.8674C36 27.6724 37.9132 22.9127 41 19Z" fill="#271B10"/>
<path d="M42.855 17.8803C51.4895 7.02527 69.3764 9.1474 82.5 13.7917C93.7985 17.7901 100.653 26.5984 103.09 33.8511C105.672 40.0475 102.555 46.589 96.319 48.2768C93.346 49.0815 90.1458 48.6874 87.3044 47.3902C85.6635 48.6306 83.5153 50.2917 81.4055 50.2917C77.5051 50.2917 74.2897 46.886 72.5026 43.2343C70.9657 45.3215 69.1363 47.3902 66.9491 47.3902C64.0334 47.3902 61.2789 44.341 59.6826 40.89C57.8993 42.1624 53.2603 44.1852 51.047 44.1852C44.3815 44.1852 39 36.84 39 28.6841C39 24.928 40.0684 21.3836 42.855 17.8803Z" fill="#4D3A2A"/>
<path d="M62.5 7.4987C62.0846 7.76152 61.5949 7.94348 61.0798 8.02627L59.7425 8.24124C59.2275 8.32403 58.7054 8.30475 58.2286 8.18532L46.5109 5.25017C44.3151 4.70016 41.9652 6.3099 42.3976 8.04274C43.5772 12.7694 44.1766 16.55 44.5392 21.4088C44.672 23.188 47.4048 23.9771 49.3155 22.7679L59.9322 16.0493C60.3475 15.7865 60.8373 15.6045 61.3523 15.5217L61.8329 15.4445C62.3479 15.3617 62.87 15.381 63.3468 15.5004L75.5937 18.5681C77.7755 19.1146 80.1149 17.5279 79.7001 15.803C78.5538 11.0354 77.9268 7.24425 77.5247 2.35975C77.3788 0.587748 74.6531 -0.192198 72.7483 1.0132L62.5 7.4987Z" fill="#F0836B"/>
</svg>
