<svg width="132" height="85" viewBox="0 0 132 85" fill="none" xmlns="http://www.w3.org/2000/svg">
<path d="M54.6018 38.7525C56.7762 36.6618 57.7615 34.0529 56.8694 30.618C53.9689 19.4505 31.0136 4.76925 17.8767 9.04628C4.73975 13.3233 -2.25017 24.8564 0.650249 36.024C1.30272 38.5362 2.46632 40.7659 4.02763 42.6644C3.24868 45.5842 3.29945 48.4206 4.33607 50.9188C5.49807 53.7191 7.74913 55.7337 10.7023 56.9189C9.85236 59.3877 9.76595 61.7245 10.5942 63.7205C13.4128 70.513 25.7559 70.7874 38.1633 64.3335C50.5707 57.8796 58.3441 47.1413 55.5255 40.3488C55.285 39.7692 54.9751 39.2371 54.6018 38.7525Z" fill="#C4C4C4"/>
<path d="M77.3982 38.7525C75.2238 36.6618 74.2385 34.0529 75.1306 30.618C78.0311 19.4505 100.986 4.76926 114.123 9.04629C127.26 13.3233 134.25 24.8564 131.35 36.024C130.697 38.5362 129.534 40.7659 127.972 42.6645C128.751 45.5842 128.701 48.4206 127.664 50.9188C126.502 53.7191 124.251 55.7337 121.298 56.919C122.148 59.3877 122.234 61.7245 121.406 63.7206C118.587 70.513 106.244 70.7875 93.8367 64.3335C81.4293 57.8796 73.6559 47.1413 76.4745 40.3488C76.715 39.7692 77.0249 39.2371 77.3982 38.7525Z" fill="#C4C4C4"/>
<ellipse cx="26.9674" cy="38.0706" rx="17.6578" ry="19.4741" fill="#EAEAEA"/>
<ellipse cx="104.908" cy="38.0706" rx="17.6578" ry="19.4741" fill="#EAEAEA"/>
<path d="M106 51C106 70.2042 106.01 85 66.2453 85C26.4804 85 25.5 70.2042 25.5 51C25.5 31.7958 44.6521 7.00001 66.6136 7.00001C88.5752 7.00001 106 31.7958 106 51Z" fill="#C4C4C4"/>
<circle cx="48.196" cy="48.0826" r="3.28661" fill="#606060"/>
<circle cx="84.3487" cy="48.0826" r="3.28661" fill="#606060"/>
<path d="M67 56V61.5C67 63.9853 69.0147 66 71.5 66H72.8033C74.5688 66 76 64.5688 76 62.8033V62.8033" stroke="#606060" stroke-width="1.64331" stroke-linecap="round" stroke-linejoin="round"/>
<path d="M67 56V61.5C67 63.9853 64.9853 66 62.5 66H61.1967C59.4312 66 58 64.5688 58 62.8033V62.8033" stroke="#606060" stroke-width="1.64331" stroke-linecap="round" stroke-linejoin="round"/>
<path d="M74.8894 52.6C74.8894 57.2392 76.5503 61 67 61C57.4497 61 59.1106 57.2392 59.1106 52.6C59.1106 47.9608 62.6428 43 67 43C71.3572 43 74.8894 47.9608 74.8894 52.6Z" fill="#606060"/>
<circle cx="63.5" cy="48.5" r="1.5" fill="white"/>
<circle cx="38" cy="61" r="7" fill="#FFCEB9"/>
<circle cx="95" cy="61" r="7" fill="#FFCEB9"/>
<path d="M75.2876 23.0406C69.5806 19.3578 66.1924 14.9714 67.7603 12.9395C69.3282 10.9076 75.47 11.8924 81.177 15.5752C86.884 19.2581 90.9273 26.0063 90.675 26.3334C90.4226 26.6604 80.9946 26.7235 75.2876 23.0406Z" fill="#34876F"/>
<g style="mix-blend-mode:multiply">
<path fill-rule="evenodd" clip-rule="evenodd" d="M67.4449 13.5813C75.183 18.5692 81.7917 22.0322 89.929 25.9491C82.1218 21.8319 76.1043 17.8251 68.5815 12.816C68.4458 12.7256 68.3097 12.635 68.173 12.544C68.0125 12.6599 67.8743 12.7917 67.7603 12.9395C67.611 13.133 67.5066 13.3478 67.4449 13.5813Z" fill="#34876F" fill-opacity="0.5"/>
</g>
<path d="M58.7971 11.2228C63.0555 8.47474 65.5836 5.2018 64.4137 3.68567C63.2438 2.16954 58.661 2.90434 54.4027 5.65235C50.1443 8.40036 47.1274 13.4356 47.3157 13.6796C47.504 13.9237 54.5388 13.9708 58.7971 11.2228Z" fill="#34876F"/>
<g style="mix-blend-mode:multiply">
<path fill-rule="evenodd" clip-rule="evenodd" d="M64.6491 4.16466C58.8752 7.88643 53.9441 10.4704 47.8723 13.393C53.6977 10.3209 58.1878 7.33118 63.801 3.5936C63.9022 3.52618 64.0038 3.45852 64.1058 3.39061C64.2256 3.47715 64.3287 3.5755 64.4138 3.68575C64.5252 3.83011 64.603 3.99041 64.6491 4.16466Z" fill="#34876F" fill-opacity="0.5"/>
</g>
</svg>
