<svg width="135" height="129" viewBox="0 0 135 129" fill="none" xmlns="http://www.w3.org/2000/svg">
<circle cx="16" cy="54" r="16" fill="#D2714C"/>
<circle cx="17" cy="54" r="12" fill="#FFE1C2"/>
<circle r="16" transform="matrix(-1 0 0 1 119 54)" fill="#D2714C"/>
<circle r="12" transform="matrix(-1 0 0 1 118 54)" fill="#FFE1C2"/>
<path fill-rule="evenodd" clip-rule="evenodd" d="M74.7634 0.302898C77.3582 1.24736 78.6962 4.11657 77.7517 6.71146L73.9895 17.0481C73.1803 19.2712 70.9584 20.5718 68.7065 20.3048C68.3371 20.5734 67.9243 20.7955 67.4737 20.9595C64.8788 21.904 62.0096 20.5661 61.0651 17.9712L57.3029 7.63456C56.3584 5.03967 57.6964 2.17046 60.2913 1.22599C62.8861 0.281531 65.7554 1.61947 66.6998 4.21436L67.3593 6.0263L68.3548 3.29126C69.2993 0.696371 72.1685 -0.641565 74.7634 0.302898Z" fill="#D2714C"/>
<path d="M119 59.1518C119 82.8162 95.9427 102 67.5 102C39.0573 102 16 82.8162 16 59.1518C16 35.4874 39.0573 9 67.5 9C95.9427 9 119 35.4874 119 59.1518Z" fill="#D2714C"/>
<path fill-rule="evenodd" clip-rule="evenodd" d="M24.3676 82.5732C24.838 73.1586 32.5875 65 42.862 65H92.224C102.46 65 110.192 73.0983 110.713 82.4704C101.534 94.221 85.6193 101.994 67.522 102C67.5147 102 67.5073 102 67.5 102C67.4927 102 67.4854 102 67.478 102C49.4335 101.994 33.5588 94.2663 24.3676 82.5732Z" fill="#FFE1C2"/>
<path fill-rule="evenodd" clip-rule="evenodd" d="M68 66.3809C64.5546 74.6779 57.1294 80.4188 48.525 80.4188C36.6371 80.4188 27 69.4603 27 55.9424C27 42.4244 36.6371 31.4659 48.525 31.4659C57.1294 31.4659 64.5546 37.2068 68 45.5039C71.4454 37.2068 78.8706 31.4659 87.475 31.4659C99.3629 31.4659 109 42.4244 109 55.9424C109 69.4603 99.3629 80.4188 87.475 80.4188C78.8706 80.4188 71.4454 74.6779 68 66.3809Z" fill="#FFE1C2"/>
<ellipse rx="8" ry="10" transform="matrix(-1 0 0 1 47 61)" fill="#562B30"/>
<ellipse rx="3" ry="3.5" transform="matrix(-1 0 0 1 49 57.5)" fill="white"/>
<circle r="1.5" transform="matrix(-1 0 0 1 44.5 62.5)" fill="white"/>
<ellipse cx="90" cy="61" rx="8" ry="10" fill="#562B30"/>
<ellipse cx="88" cy="57.5" rx="3" ry="3.5" fill="white"/>
<circle cx="92.5" cy="62.5" r="1.5" fill="white"/>
<path d="M75.6846 71.1462C75.6846 73.0137 72.7433 74.2184 69.1151 74.2184C65.4869 74.2184 62.5457 73.0137 62.5457 71.1462C62.5457 69.2788 65.4869 67 69.1151 67C72.7433 67 75.6846 69.2788 75.6846 71.1462Z" fill="#562B30"/>
<circle cx="72.1293" cy="69.5811" r="0.927448" fill="white"/>
<path d="M69.0855 68.9034V75.7403C69.0855 77.9731 70.8954 79.7831 73.1282 79.7831H73.693C75.6138 79.7831 77.1709 78.2259 77.1709 76.3051V76.3051" stroke="#562B30" stroke-width="1.70032" stroke-linecap="round" stroke-linejoin="round"/>
<path d="M69.0854 68.9034V75.7403C69.0854 77.9731 67.2755 79.7831 65.0427 79.7831H64.4779C62.5571 79.7831 61 78.2259 61 76.3051V76.3051" stroke="#562B30" stroke-width="1.70032" stroke-linecap="round" stroke-linejoin="round"/>
<ellipse cx="38.5" cy="75.5" rx="7.5" ry="5.5" fill="#FFB99B"/>
<ellipse cx="97.5" cy="75.5" rx="7.5" ry="5.5" fill="#FFB99B"/>
<path d="M87.2903 96.1134C88.0381 94.5739 88.2817 93.0574 88.1381 91.666C88.0199 90.5227 88.3419 89.3487 89.0152 88.372C89.0624 88.3036 89.1111 88.2359 89.1617 88.1695L91.1207 85.598C92.2316 84.1396 92.109 82.098 90.7857 81.0267C89.4128 79.9153 87.3375 80.2525 86.1924 81.7557L85.1178 83.1664C84.1464 84.4415 82.6502 85.1868 81.1256 85.1496C79.6369 85.1134 78.0511 85.5373 76.5146 86.5518C71.1861 90.0697 65.2085 92.4906 58.9467 93.5747C52.6849 94.6587 46.4412 94.3536 40.6139 92.767C36.9693 91.7746 33.6348 93.547 31.8035 96.2922C29.9647 99.0485 29.6415 102.786 32.0429 105.691C34.9592 109.219 38.6771 112.08 43.0278 113.998C54.4531 119.034 68.1826 116.657 78.2604 107.898C82.1016 104.559 85.1486 100.522 87.2903 96.1134Z" fill="#EEBF00"/>
<path d="M89.0152 88.3721C89.0624 88.3036 89.1111 88.2359 89.1617 88.1695L90.1893 86.8206L91.1207 85.598C92.2316 84.1396 92.109 82.098 90.7857 81.0268C89.4128 79.9153 87.3375 80.2525 86.1924 81.7557L85.199 83.0598L85.1178 83.1664C84.1464 84.4415 82.6502 85.1868 81.1256 85.1496C79.6369 85.1134 78.0511 85.5373 76.5146 86.5518C71.1861 90.0697 65.2085 92.4906 58.9467 93.5747C52.6849 94.6587 46.4412 94.3536 40.6139 92.767C36.9693 91.7747 33.6348 93.547 31.8035 96.2922C39.6097 103.61 50.3743 106.915 61.3513 105.363C72.2551 103.822 82.3199 97.6359 89.0152 88.3721Z" fill="#FFD422"/>
<path d="M90.1893 86.8207L91.1206 85.598C92.2316 84.1396 92.109 82.098 90.7857 81.0268C89.4128 79.9154 87.3375 80.2525 86.1923 81.7558L85.1989 83.0598C86.4942 84.7468 88.2116 86.0412 90.1893 86.8207Z" fill="#AA6100"/>
<g clip-path="url(#clip0_226_6)">
<path d="M105.195 19.7688C104.931 18.8878 104.476 18.1993 103.914 17.701C103.451 17.2916 103.152 16.71 103.063 16.0789C103.057 16.0347 103.052 15.9902 103.048 15.9455L102.888 14.216C102.798 13.2352 102.007 12.472 101.094 12.5292C100.147 12.5885 99.4484 13.4762 99.5417 14.4872L99.6293 15.4359C99.7085 16.2934 99.3874 17.1322 98.7707 17.6716C98.1685 18.1984 97.6951 18.9425 97.456 19.9024C96.6264 23.231 95.1413 26.3616 93.0579 29.0665C90.9744 31.7715 88.3931 33.9202 85.5109 35.4105C83.7082 36.3426 83.0331 38.2559 83.3063 40.0076C83.5807 41.7665 84.8112 43.3627 86.8173 43.6392C89.2534 43.975 91.7643 43.7556 94.1827 42.933C100.534 40.7728 105.102 34.842 105.906 27.7135C106.212 24.9963 105.95 22.2916 105.195 19.7688Z" fill="#EEBF00"/>
<path d="M103.063 16.0789C103.057 16.0347 103.052 15.9902 103.048 15.9455L102.964 15.0383L102.888 14.216C102.798 13.2352 102.007 12.472 101.094 12.5292C100.147 12.5885 99.4484 13.4762 99.5417 14.4872L99.6227 15.3642L99.6293 15.4359C99.7085 16.2934 99.3874 17.1322 98.7707 17.6716C98.1685 18.1984 97.6951 18.9425 97.456 19.9024C96.6264 23.231 95.1413 26.3616 93.0579 29.0665C90.9744 31.7715 88.3931 33.9202 85.5109 35.4105C83.7082 36.3426 83.0331 38.2559 83.3063 40.0076C89.0547 40.0655 94.515 37.4604 98.2941 32.8566C102.048 28.2834 103.782 22.1777 103.063 16.0789Z" fill="#FFD422"/>
<path d="M102.964 15.0384L102.888 14.2161C102.798 13.2352 102.007 12.4721 101.094 12.5292C100.147 12.5885 99.4484 13.4762 99.5418 14.4872L99.6227 15.3642C100.748 15.5609 101.898 15.4488 102.964 15.0384Z" fill="#AA6100"/>
</g>
<g clip-path="url(#clip1_226_6)">
<path d="M24.679 16.6889C24.4541 16.0999 24.4134 15.5357 24.5108 15.0297C24.5909 14.614 24.5105 14.1729 24.2948 13.7929C24.2797 13.7663 24.264 13.7399 24.2476 13.7139L23.6114 12.7073C23.2507 12.1365 23.3613 11.3913 23.8812 11.0408C24.4207 10.6771 25.1714 10.8675 25.5433 11.4559L25.8922 12.008C26.2077 12.5071 26.7327 12.8287 27.2933 12.864C27.8407 12.8986 28.409 13.1051 28.9402 13.5267C30.7823 14.9888 32.8978 16.0691 35.1606 16.6682C37.4234 17.2672 39.7243 17.3559 41.9134 16.961C43.2826 16.714 44.4492 17.4715 45.0329 18.5376C45.6191 19.6081 45.6176 20.9898 44.643 21.9785C43.4596 23.1793 42.0034 24.1096 40.3454 24.6735C35.9913 26.1543 31.0299 24.8409 27.6136 21.3031C26.3115 19.9546 25.3232 18.3755 24.679 16.6889Z" fill="#EEBF00"/>
<path d="M24.2948 13.7929C24.2797 13.7663 24.264 13.7399 24.2476 13.7139L23.9139 13.1859L23.6114 12.7073C23.2507 12.1365 23.3613 11.3913 23.8812 11.0408C24.4207 10.6771 25.1714 10.8675 25.5433 11.4559L25.8659 11.9663L25.8922 12.008C26.2077 12.5071 26.7327 12.8287 27.2933 12.864C27.8407 12.8986 28.409 13.1051 28.9402 13.5267C30.7823 14.9888 32.8978 16.0691 35.1606 16.6682C37.4234 17.2672 39.7243 17.3559 41.9134 16.961C43.2826 16.714 44.4492 17.4715 45.0329 18.5376C41.9334 20.9718 37.8774 21.8385 33.8995 20.9164C29.9481 20.0004 26.4538 17.4072 24.2948 13.7929Z" fill="#FFD422"/>
<path d="M23.9139 13.1859L23.6114 12.7073C23.2506 12.1365 23.3612 11.3913 23.8812 11.0408C24.4207 10.6771 25.1714 10.8675 25.5432 11.4559L25.8658 11.9663C25.3364 12.5437 24.6646 12.9634 23.9139 13.1859Z" fill="#AA6100"/>
</g>
<defs>
<clipPath id="clip0_226_6">
<rect width="27.9379" height="30.0869" fill="white" transform="translate(79 14.5679) rotate(-5.27369)"/>
</clipPath>
<clipPath id="clip1_226_6">
<rect width="19.1533" height="20.6267" fill="white" transform="matrix(-0.845318 0.534264 0.534264 0.845318 36.7394 2.91345)"/>
</clipPath>
</defs>
</svg>
