<svg width="116" height="118" viewBox="0 0 116 118" fill="none" xmlns="http://www.w3.org/2000/svg">
<path d="M26.4554 1.83527C18.5455 2.91837 11.6509 40.1729 11.6509 40.1729L47.701 35.8643C47.701 35.8643 33.9258 0.812355 26.4554 1.83527Z" fill="#FFCFBB"/>
<path d="M27.3563 7.82759C21.2665 8.66146 15.9584 37.3437 15.9584 37.3437L43.7133 34.0265C43.7133 34.0265 33.1078 7.04004 27.3563 7.82759Z" fill="#FFDED0"/>
<path d="M88.6299 1.83527C96.5398 2.91837 103.434 40.1729 103.434 40.1729L67.3844 35.8643C67.3844 35.8643 81.1595 0.812355 88.6299 1.83527Z" fill="#FFCFBB"/>
<path d="M87.729 7.82759C93.8188 8.66146 99.1269 37.3437 99.1269 37.3437L71.3721 34.0265C71.3721 34.0265 81.9776 7.04004 87.729 7.82759Z" fill="#FFDED0"/>
<rect x="7" y="15" width="100" height="103" rx="45.6567" fill="#FFD1BD"/>
<g style="mix-blend-mode:multiply">
<path fill-rule="evenodd" clip-rule="evenodd" d="M52.2439 93.8781C52.2439 94.5133 52.1188 95.1423 51.8757 95.7292C51.6326 96.3161 51.2762 96.8494 50.827 97.2986C50.3779 97.7478 49.8446 98.1041 49.2577 98.3472C48.6708 98.5903 48.0417 98.7155 47.4065 98.7155C46.7712 98.7155 46.1422 98.5903 45.5553 98.3472C44.9684 98.1041 44.4351 97.7478 43.9859 97.2986C43.5367 96.8494 43.1804 96.3161 42.9373 95.7292C42.6942 95.1423 42.5691 94.5133 42.5691 93.8781L47.4065 93.8781H52.2439ZM61.9187 93.8781H57.0813H52.2439C52.2439 94.5133 52.369 95.1423 52.6121 95.7292C52.8552 96.3161 53.2115 96.8494 53.6607 97.2986C54.1099 97.7478 54.6432 98.1041 55.2301 98.3472C55.817 98.5903 56.446 98.7155 57.0813 98.7155C57.7165 98.7155 58.3456 98.5903 58.9325 98.3472C59.5194 98.1041 60.0526 97.7478 60.5018 97.2986C60.951 96.8494 61.3074 96.3161 61.5505 95.7292C61.7936 95.1423 61.9187 94.5133 61.9187 93.8781ZM61.9187 93.8781H66.7561H71.5935C71.5935 94.5133 71.4684 95.1423 71.2253 95.7292C70.9822 96.3161 70.6258 96.8494 70.1766 97.2986C69.7274 97.7478 69.1942 98.1041 68.6073 98.3472C68.0204 98.5903 67.3913 98.7155 66.7561 98.7155C66.1208 98.7155 65.4918 98.5903 64.9049 98.3472C64.318 98.1041 63.7847 97.7478 63.3355 97.2986C62.8863 96.8494 62.53 96.3161 62.2869 95.7292C62.0438 95.1423 61.9187 94.5133 61.9187 93.8781Z" fill="#F4B89F" fill-opacity="0.5"/>
</g>
<g style="mix-blend-mode:multiply">
<path fill-rule="evenodd" clip-rule="evenodd" d="M52.2439 83.2358C52.2439 83.8499 52.1188 84.4579 51.8757 85.0253C51.6326 85.5926 51.2762 86.1081 50.827 86.5423C50.3779 86.9765 49.8446 87.321 49.2577 87.556C48.6708 87.791 48.0417 87.9119 47.4065 87.9119C46.7712 87.9119 46.1422 87.791 45.5553 87.556C44.9684 87.321 44.4351 86.9765 43.9859 86.5423C43.5367 86.1081 43.1804 85.5926 42.9373 85.0253C42.6942 84.4579 42.5691 83.8499 42.5691 83.2358L47.4065 83.2358H52.2439ZM61.9187 83.2358H57.0813H52.2439C52.2439 83.8499 52.369 84.4579 52.6121 85.0253C52.8552 85.5926 53.2115 86.1081 53.6607 86.5423C54.1099 86.9765 54.6432 87.321 55.2301 87.556C55.817 87.791 56.446 87.9119 57.0813 87.9119C57.7165 87.9119 58.3456 87.791 58.9325 87.556C59.5194 87.321 60.0526 86.9765 60.5018 86.5423C60.951 86.1081 61.3074 85.5926 61.5505 85.0253C61.7936 84.4579 61.9187 83.8499 61.9187 83.2358ZM61.9187 83.2358H66.7561H71.5935C71.5935 83.8499 71.4684 84.4579 71.2253 85.0253C70.9822 85.5926 70.6258 86.1081 70.1766 86.5423C69.7274 86.9765 69.1942 87.321 68.6073 87.556C68.0204 87.791 67.3913 87.9119 66.7561 87.9119C66.1208 87.9119 65.4918 87.791 64.9049 87.556C64.318 87.321 63.7847 86.9765 63.3355 86.5423C62.8863 86.1081 62.53 85.5926 62.2869 85.0253C62.0438 84.4579 61.9187 83.8499 61.9187 83.2358Z" fill="#F4B89F" fill-opacity="0.5"/>
</g>
<g style="mix-blend-mode:multiply">
<path fill-rule="evenodd" clip-rule="evenodd" d="M45.6328 104.52H51.5989H57.565H63.5312C63.5312 106.103 62.9026 107.62 61.7837 108.739C60.6649 109.858 59.1474 110.486 57.565 110.486C55.9827 110.486 54.4652 109.858 53.3464 108.739C52.23 107.623 51.6017 106.109 51.5989 104.531C51.5975 105.311 51.4433 106.083 51.1448 106.803C50.845 107.527 50.4055 108.185 49.8515 108.739C49.2975 109.293 48.6398 109.732 47.9159 110.032C47.1921 110.332 46.4163 110.486 45.6328 110.486C44.8493 110.486 44.0735 110.332 43.3497 110.032C42.6258 109.732 41.9681 109.293 41.4141 108.739C40.8601 108.185 40.4207 107.527 40.1208 106.803C39.821 106.08 39.6667 105.304 39.6667 104.52L45.6328 104.52ZM75.0093 106.803C75.3091 106.08 75.4635 105.304 75.4635 104.52H69.4973L63.5312 104.52C63.5312 105.304 63.6855 106.08 63.9853 106.803C64.2852 107.527 64.7246 108.185 65.2786 108.739C65.8326 109.293 66.4903 109.732 67.2142 110.032C67.938 110.332 68.7138 110.486 69.4973 110.486C70.2808 110.486 71.0566 110.332 71.7805 110.032C72.5043 109.732 73.162 109.293 73.716 108.739C74.27 108.185 74.7095 107.527 75.0093 106.803Z" fill="#F4B89F" fill-opacity="0.5"/>
</g>
<path fill-rule="evenodd" clip-rule="evenodd" d="M12.1966 39.4821C8.87756 45.811 7 53.0146 7 60.6566V72.3433C7 90.643 17.7661 106.428 33.3099 113.71C39.297 106.967 42.9332 98.0892 42.9332 88.3622V76.9481C42.9332 58.4062 29.7204 42.9503 12.1966 39.4821Z" fill="#FFDED0"/>
<path fill-rule="evenodd" clip-rule="evenodd" d="M101.817 39.5078C105.128 45.8305 107 53.0249 107 60.6567V72.3434C107 90.6037 96.2801 106.36 80.7902 113.663C74.8278 106.926 71.2085 98.0667 71.2085 88.3623V76.9481C71.2085 58.4515 84.3568 43.0258 101.817 39.5078Z" fill="#FFDED0"/>
<path d="M57.0708 54.5354C57.0708 70.2951 44.2951 83.0708 28.5354 83.0708C12.7757 83.0708 0 70.2951 0 54.5354C0 38.7757 12.7757 26 28.5354 26C44.2951 26 57.0708 38.7757 57.0708 54.5354Z" fill="white"/>
<path d="M50.5041 54.252C50.5041 66.5415 40.5415 76.5041 28.252 76.5041C15.9626 76.5041 6 66.5415 6 54.252C6 41.9626 15.9626 32 28.252 32C40.5415 32 50.5041 41.9626 50.5041 54.252Z" fill="#F3F3F3"/>
<path d="M43.5923 54.7961C43.5923 62.9678 36.9678 69.5923 28.7961 69.5923C20.6245 69.5923 14 62.9678 14 54.7961C14 46.6245 20.6245 40 28.7961 40C36.9678 40 43.5923 46.6245 43.5923 54.7961Z" fill="#323232"/>
<path d="M29.007 49.877C29.007 52.7955 26.6411 55.1614 23.7226 55.1614C20.8042 55.1614 18.4383 52.7955 18.4383 49.877C18.4383 46.9586 20.8042 44.5927 23.7226 44.5927C26.6411 44.5927 29.007 46.9586 29.007 49.877Z" fill="#F7F7F7"/>
<path d="M115.071 54.5354C115.071 70.2951 102.295 83.0708 86.5354 83.0708C70.7757 83.0708 58 70.2951 58 54.5354C58 38.7757 70.7757 26 86.5354 26C102.295 26 115.071 38.7757 115.071 54.5354Z" fill="white"/>
<path d="M108.504 54.252C108.504 66.5415 98.5415 76.5041 86.252 76.5041C73.9626 76.5041 64 66.5415 64 54.252C64 41.9626 73.9626 32 86.252 32C98.5415 32 108.504 41.9626 108.504 54.252Z" fill="#F3F3F3"/>
<path d="M101.592 54.7961C101.592 62.9678 94.9678 69.5923 86.7961 69.5923C78.6245 69.5923 72 62.9678 72 54.7961C72 46.6245 78.6245 40 86.7961 40C94.9678 40 101.592 46.6245 101.592 54.7961Z" fill="#323232"/>
<path d="M97.5814 49.877C97.5814 52.7955 95.2155 55.1614 92.297 55.1614C89.3786 55.1614 87.0127 52.7955 87.0127 49.877C87.0127 46.9586 89.3786 44.5927 92.297 44.5927C95.2155 44.5927 97.5814 46.9586 97.5814 49.877Z" fill="#F7F7F7"/>
<path d="M66 57.5949C66 54.5049 62.1944 52 57.5 52C52.8056 52 49 54.5049 49 57.5949C49 60.6849 52.8056 69 57.5 69C62.1944 69 66 60.6849 66 57.5949Z" fill="#FFD500"/>
<ellipse cx="23.7032" cy="75.9797" rx="7.2561" ry="4.35366" fill="#FFB99B"/>
<ellipse cx="91.4268" cy="75.9797" rx="7.2561" ry="4.35366" fill="#FFB99B"/>
</svg>
