<svg width="125" height="128" viewBox="0 0 125 128" fill="none" xmlns="http://www.w3.org/2000/svg">
<path d="M58.8369 19.0727C60.1147 14.3423 66.0696 10.349 66.0696 10.349C66.0696 10.349 68.7176 16.4403 67.4397 21.1707C66.1619 25.9012 60.6768 30.3123 60.6768 30.3123C60.6768 30.3123 57.559 23.8032 58.8369 19.0727Z" fill="#ACCC5F"/>
<path d="M55.8862 16.4706C51.7595 11.5054 42.1836 10.0954 42.1836 10.0954C42.1836 10.0954 42.0501 19.0022 46.1767 23.9675C50.3034 28.9328 59.5988 31.0497 59.5988 31.0497C59.5988 31.0497 60.0128 21.4359 55.8862 16.4706Z" fill="#BBD468"/>
<circle cx="19.5" cy="42.5232" r="19.5" fill="#454545"/>
<circle cx="18.5" cy="42.5" r="13.5" fill="#FFDED0"/>
<circle cx="105.5" cy="42.5232" r="19.5" fill="#454545"/>
<circle cx="105.5" cy="42.5" r="13.5" fill="#FFDED0"/>
<path d="M120 78.177C120 103.87 94.0325 128 62 128C29.9675 128 4 103.87 4 78.177C4 52.4839 29.9675 24 62 24C94.0325 24 120 52.4839 120 78.177Z" fill="#FBFBFB"/>
<circle cx="31" cy="73" r="13" fill="#454545"/>
<circle cx="35.3888" cy="70.5066" r="4.5" transform="rotate(-150 35.3888 70.5066)" fill="white"/>
<circle cx="29.3398" cy="78.4576" r="3" transform="rotate(-150 29.3398 78.4576)" fill="white"/>
<circle cx="95" cy="73" r="13" fill="#454545"/>
<circle cx="99.3888" cy="70.5066" r="4.5" transform="rotate(-150 99.3888 70.5066)" fill="white"/>
<circle cx="93.3398" cy="78.4576" r="3" transform="rotate(-150 93.3398 78.4576)" fill="white"/>
<ellipse cx="24.5" cy="94.5" rx="7.5" ry="5.5" fill="#FFC6AD"/>
<ellipse cx="101.5" cy="94.5" rx="7.5" ry="5.5" fill="#FFC6AD"/>
<rect x="61.9038" y="88.0093" width="2.14795" height="8.91294" rx="1.07397" fill="#454545"/>
<ellipse cx="62.935" cy="85.6118" rx="7.30303" ry="4.61181" fill="#454545"/>
<ellipse cx="59.1974" cy="83.5996" rx="1.15989" ry="1.11412" fill="white"/>
<path d="M55.5 94.4932C59.3663 97.8356 66.6337 97.8356 70.5 94.4932" stroke="#454545" stroke-width="2.5" stroke-linecap="round"/>
<path d="M52.4643 72.7857C52.4643 85.1805 41.9475 95.3214 28.8571 95.3214C15.7668 95.3214 5.25 85.1805 5.25 72.7857C5.25 60.3909 15.7668 50.25 28.8571 50.25C41.9475 50.25 52.4643 60.3909 52.4643 72.7857Z" stroke="#323232" stroke-width="2.5"/>
<path d="M118.75 72.7857C118.75 85.1805 108.233 95.3214 95.1428 95.3214C82.0525 95.3214 71.5357 85.1805 71.5357 72.7857C71.5357 60.3909 82.0525 50.25 95.1428 50.25C108.233 50.25 118.75 60.3909 118.75 72.7857Z" stroke="#323232" stroke-width="2.5"/>
<path d="M52.6095 71.0383C59.6834 69.8336 63.8348 69.8553 71.3905 71.0383V75.4286C64.1753 74.3306 60.0612 74.3152 52.6095 75.4286V71.0383Z" fill="#242424"/>
</svg>
