<svg width="181" height="212" viewBox="0 0 181 212" fill="none" xmlns="http://www.w3.org/2000/svg">
<path fill-rule="evenodd" clip-rule="evenodd" d="M102.651 0.462704C106.992 1.96114 109.177 6.65151 107.532 10.9389L101.475 26.7211C100.064 30.3981 96.2934 32.5845 92.5101 32.1874C91.896 32.6202 91.2083 32.9758 90.4559 33.2355C86.1149 34.734 81.262 32.473 79.6165 28.1856L73.5597 12.4035C71.9143 8.11607 74.0995 3.4257 78.4404 1.92726C82.7814 0.428824 87.6344 2.68975 89.2798 6.97717L90.2647 9.54355L91.8117 5.51262C93.4571 1.22519 98.3101 -1.03573 102.651 0.462704Z" fill="#282828"/>
<ellipse cx="89.6636" cy="92.7955" rx="81.972" ry="80.1208" fill="#282828"/>
<path fill-rule="evenodd" clip-rule="evenodd" d="M16.9447 129.81C16.9395 129.774 16.9344 129.738 16.9294 129.702C11.9817 94.5915 28.5606 63.5193 53.9594 60.3001C66.9293 58.6562 79.691 64.5933 89.734 75.4729C99.7769 64.5933 112.539 58.6562 125.509 60.3001C150.846 63.5115 167.407 94.4424 162.574 129.449C148.962 155.263 121.422 172.916 89.6635 172.916C58.0532 172.916 30.6218 155.428 16.9447 129.81Z" fill="white"/>
<ellipse cx="40.3131" cy="124.526" rx="12.5467" ry="11.8991" fill="#FFC6AD"/>
<ellipse cx="139.014" cy="124.526" rx="12.5467" ry="11.8991" fill="#FFC6AD"/>
<g filter="url(#filter0_f_239_689)">
<path d="M8.35982 112.684C8.48453 111.939 9.35733 111.595 9.96293 112.045C54.5998 145.242 127.176 143.753 168.565 112.02C169.151 111.571 170.007 111.878 170.168 112.598L178.614 150.408C179.425 154.041 177.629 157.769 174.227 159.282C119.023 183.831 57.6966 183.807 6.21967 159.21C3.08503 157.712 1.38919 154.291 1.96323 150.865L8.35982 112.684Z" fill="#8ED2C9"/>
</g>
<path d="M8.35982 112.684C8.48453 111.939 9.35733 111.595 9.96293 112.045C54.5998 145.242 127.176 143.753 168.565 112.02C169.151 111.571 170.007 111.878 170.168 112.598L178.614 150.408C179.425 154.041 177.629 157.769 174.227 159.282C119.023 183.831 57.6966 183.807 6.21967 159.21C3.08503 157.712 1.38919 154.291 1.96323 150.865L8.35982 112.684Z" fill="#8ED2C9"/>
<g filter="url(#filter1_f_239_689)">
<path d="M116.417 155.464C114.463 155.464 112.923 157.053 113.098 158.899C114.919 178.121 117.7 189.09 128.285 203.052C129.029 204.034 130.312 204.507 131.565 204.285L131.721 204.258C132.617 206.728 134.09 208.706 135.815 210.482C136.441 211.126 137.499 211.167 138.179 210.574C138.858 209.98 138.902 208.976 138.276 208.332C136.88 206.895 135.772 205.414 135.055 203.668L139.075 202.957C139.947 205.666 141.502 207.793 143.343 209.688C143.969 210.333 145.028 210.374 145.707 209.78C146.387 209.187 146.43 208.183 145.804 207.538C144.276 205.966 143.093 204.34 142.39 202.371L145.895 201.751C146.786 204.28 148.28 206.296 150.035 208.102C150.661 208.746 151.719 208.787 152.399 208.194C153.078 207.6 153.122 206.596 152.495 205.952C151.067 204.481 149.939 202.964 149.224 201.163L152.726 200.543C153.629 202.897 155.061 204.8 156.726 206.515C157.352 207.16 158.411 207.201 159.09 206.607C159.77 206.013 159.813 205.01 159.187 204.365C157.859 202.998 156.79 201.59 156.073 199.952L159.568 199.334C160.476 201.515 161.842 203.306 163.418 204.929C164.044 205.573 165.102 205.614 165.782 205.021C166.461 204.427 166.505 203.423 165.879 202.779C164.652 201.516 163.647 200.219 162.936 198.738L166.422 198.122C167.326 200.135 168.625 201.814 170.11 203.342C170.736 203.987 171.794 204.028 172.473 203.434C173.153 202.84 173.196 201.837 172.57 201.192C171.447 200.036 170.51 198.851 169.813 197.522L173.287 196.908C174.18 198.757 175.409 200.322 176.801 201.756C177.427 202.4 178.485 202.441 179.165 201.848C179.844 201.254 179.888 200.25 179.262 199.606C178.022 198.33 177.009 197.019 176.296 195.518C177.053 194.55 177.225 193.193 176.537 192.022C169.262 179.64 165.711 171.255 162.699 158.009C162.363 156.533 160.994 155.464 159.401 155.464H116.417Z" fill="#8ED2C9"/>
</g>
<path fill-rule="evenodd" clip-rule="evenodd" d="M114.968 155.464C113.796 155.464 112.874 156.469 112.981 157.636C114.83 177.947 117.551 189.121 128.778 203.698C129.228 204.282 129.971 204.567 130.697 204.439L132.383 204.141C133.248 206.492 134.659 208.385 136.328 210.104C136.713 210.5 137.346 210.509 137.742 210.124C138.138 209.739 138.147 209.106 137.763 208.71C136.308 207.212 135.139 205.648 134.39 203.786L139.736 202.841C140.578 205.429 142.069 207.47 143.856 209.31C144.241 209.707 144.874 209.716 145.27 209.331C145.666 208.946 145.676 208.313 145.291 207.917C143.706 206.286 142.461 204.576 141.728 202.488L146.557 201.634C147.417 204.044 148.849 205.975 150.548 207.724C150.933 208.12 151.566 208.129 151.962 207.744C152.358 207.36 152.367 206.727 151.982 206.33C150.495 204.799 149.306 203.198 148.56 201.28L153.39 200.426C154.261 202.661 155.63 204.481 157.239 206.137C157.624 206.533 158.257 206.543 158.653 206.158C159.05 205.773 159.059 205.14 158.674 204.744C157.285 203.314 156.156 201.823 155.405 200.07L160.235 199.216C161.109 201.281 162.413 202.988 163.931 204.551C164.316 204.947 164.949 204.956 165.345 204.571C165.741 204.186 165.75 203.553 165.365 203.157C164.076 201.83 163.011 200.45 162.264 198.857L167.091 198.004C167.96 199.902 169.197 201.497 170.622 202.964C171.007 203.36 171.64 203.37 172.036 202.985C172.433 202.6 172.442 201.967 172.057 201.571C170.869 200.347 169.871 199.08 169.137 197.642L173.96 196.789C174.816 198.526 175.983 200.007 177.314 201.378C177.699 201.774 178.332 201.783 178.728 201.398C179.124 201.013 179.134 200.38 178.749 199.984C177.663 198.866 176.736 197.712 176.025 196.424C177.387 196.159 178.073 194.612 177.36 193.413C169.345 179.95 165.653 171.354 162.483 157.047C162.279 156.126 161.464 155.464 160.52 155.464H114.968Z" fill="#8ED2C9"/>
<path d="M136.695 167.504C136.808 167.442 136.92 167.374 137.029 167.301C138.894 166.049 139.343 163.61 138.032 161.853C136.721 160.097 134.147 159.687 132.282 160.939C132.101 161.06 131.933 161.193 131.779 161.335C131.664 159.822 130.653 158.441 129.086 157.896C126.967 157.158 124.635 158.228 123.877 160.285C123.473 161.381 123.598 162.537 124.124 163.489C123.955 163.469 123.784 163.459 123.611 163.458C121.313 163.452 119.474 165.183 119.503 167.323C119.532 169.464 121.418 171.204 123.715 171.21C123.839 171.21 123.962 171.206 124.083 171.196C124.033 171.301 123.988 171.409 123.947 171.52C123.189 173.577 124.292 175.843 126.411 176.58C128.53 177.318 130.862 176.249 131.62 174.192C131.688 174.009 131.74 173.825 131.779 173.64C132.529 174.282 133.528 174.676 134.619 174.679C136.916 174.685 138.755 172.955 138.726 170.814C138.707 169.416 137.896 168.188 136.695 167.504Z" fill="white"/>
<g style="mix-blend-mode:multiply">
<ellipse rx="3.00344" ry="3.03812" transform="matrix(0.19042 0.961998 -1.00277 0.17853 129.976 167.531)" fill="#FED402"/>
</g>
<path d="M161.482 182.441C161.64 182.354 161.796 182.26 161.949 182.157C164.555 180.408 165.183 176.999 163.351 174.544C161.519 172.088 157.92 171.516 155.314 173.266C155.061 173.435 154.826 173.621 154.611 173.82C154.451 171.704 153.037 169.775 150.848 169.013C147.887 167.982 144.627 169.477 143.568 172.351C143.003 173.884 143.177 175.499 143.912 176.83C143.677 176.802 143.438 176.788 143.195 176.787C139.985 176.779 137.414 179.197 137.455 182.188C137.495 185.18 140.131 187.612 143.341 187.621C143.515 187.621 143.686 187.615 143.855 187.601C143.786 187.748 143.722 187.899 143.665 188.054C142.606 190.929 144.147 194.095 147.109 195.126C150.07 196.157 153.33 194.663 154.389 191.788C154.483 191.533 154.557 191.275 154.611 191.017C155.66 191.914 157.055 192.465 158.58 192.469C161.791 192.478 164.361 190.059 164.321 187.068C164.294 185.113 163.16 183.398 161.482 182.441Z" fill="white"/>
<g style="mix-blend-mode:multiply">
<ellipse rx="4.1976" ry="4.24607" transform="matrix(0.19042 0.961998 -1.00277 0.17853 152.091 182.478)" fill="#FED402"/>
</g>
<ellipse rx="10.8738" ry="10.3126" transform="matrix(-1 0 0 1 52.0231 103.901)" fill="#282828"/>
<ellipse rx="2.50935" ry="2.37983" transform="matrix(-1 0 0 1 57.0419 100.728)" fill="white"/>
<ellipse rx="10.8738" ry="10.3126" transform="matrix(-1 0 0 1 127.304 103.901)" fill="#282828"/>
<ellipse rx="2.50935" ry="2.37983" transform="matrix(-1 0 0 1 132.323 100.728)" fill="white"/>
<path d="M104.72 107.074C104.72 103.131 97.9787 99.9349 89.6635 99.9349C81.3483 99.9349 74.6074 103.131 74.6074 107.074C74.6074 111.017 81.3483 118.974 89.6635 118.974C97.9787 118.974 104.72 111.017 104.72 107.074Z" fill="#FED402"/>
<defs>
<filter id="filter0_f_239_689" x="0.852539" y="110.81" width="178.955" height="67.8661" filterUnits="userSpaceOnUse" color-interpolation-filters="sRGB">
<feFlood flood-opacity="0" result="BackgroundImageFix"/>
<feBlend mode="normal" in="SourceGraphic" in2="BackgroundImageFix" result="shape"/>
<feGaussianBlur stdDeviation="0.5" result="effect1_foregroundBlur_239_689"/>
</filter>
<filter id="filter1_f_239_689" x="112.084" y="154.464" width="68.6204" height="57.5293" filterUnits="userSpaceOnUse" color-interpolation-filters="sRGB">
<feFlood flood-opacity="0" result="BackgroundImageFix"/>
<feBlend mode="normal" in="SourceGraphic" in2="BackgroundImageFix" result="shape"/>
<feGaussianBlur stdDeviation="0.5" result="effect1_foregroundBlur_239_689"/>
</filter>
</defs>
</svg>
