<svg width="134" height="143" viewBox="0 0 134 143" fill="none" xmlns="http://www.w3.org/2000/svg">
<path d="M21.0285 9.68866C10.4705 15.1696 17.574 56.2711 17.574 56.2711L56.14 32.2937C56.14 32.2937 29.3894 5.34833 21.0285 9.68866Z" fill="#888888"/>
<path d="M24.4445 16.7029C16.7269 20.7092 21.9194 50.7531 21.9194 50.7531L50.1098 33.2264C50.1098 33.2264 30.556 13.5302 24.4445 16.7029Z" fill="#464646"/>
<path d="M113.422 9.29047C123.98 14.7714 116.877 55.8729 116.877 55.8729L78.311 31.8955C78.311 31.8955 105.062 4.95014 113.422 9.29047Z" fill="#888888"/>
<path d="M110.007 16.3047C117.724 20.311 112.532 50.3549 112.532 50.3549L84.3411 32.8282C84.3411 32.8282 103.895 13.132 110.007 16.3047Z" fill="#464646"/>
<path d="M17.0195 51.2451C16.9704 51.3797 16.8758 51.4878 16.756 51.5463C8.27849 55.6905 1.25259 64.5052 0.0249353 68.3453C-0.0782765 68.6681 0.15365 68.9749 0.462506 68.9751C5.61542 68.9778 6.85035 69.053 10.9428 71.1432C11.2621 71.3063 11.3297 71.7782 11.0712 72.0424L7.08509 76.1169C6.74099 76.4687 6.98956 77.1505 7.4564 77.1866C9.33687 77.3322 11.6617 77.957 14.1871 78.8769C14.3589 78.9395 14.4856 79.1029 14.519 79.3C18.449 102.47 36.7911 120 58.825 120H71.7062C93.2649 120 111.289 103.218 115.738 80.7913C115.773 80.612 115.887 80.4624 116.041 80.3952C119.989 78.6722 123.754 77.4024 126.543 77.1866C127.01 77.1505 127.258 76.4687 126.914 76.1169L122.928 72.0424C122.67 71.7782 122.737 71.3063 123.056 71.1432C127.149 69.053 128.384 68.9778 133.537 68.9751C133.846 68.9749 134.078 68.6714 133.975 68.3485C132.563 63.9212 123.43 52.8678 113.252 50.003C113.102 49.9608 112.978 49.845 112.915 49.6882C105.895 32.1959 90.0847 20 71.7062 20H58.825C39.906 20 23.7087 32.9238 17.0195 51.2451Z" fill="#888888"/>
<path d="M116.981 51.2451C117.03 51.3797 117.124 51.4878 117.244 51.5463C125.722 55.6905 132.748 64.5052 133.975 68.3453C134.078 68.6681 133.846 68.9749 133.537 68.9751C128.384 68.9778 127.149 69.053 123.056 71.1432C122.737 71.3063 122.67 71.7782 122.928 72.0424L126.914 76.1169C127.258 76.4687 127.01 77.1505 126.543 77.1866C124.662 77.3322 122.338 77.957 119.813 78.8769C119.641 78.9395 119.515 79.1029 119.481 79.3C115.551 102.47 97.2091 120 75.1752 120H62.2939C40.7353 120 22.7109 103.218 18.2622 80.7913C18.2267 80.612 18.1133 80.4624 17.9592 80.3952C14.0115 78.6723 10.2449 77.4024 7.4564 77.1866C6.98956 77.1505 6.74099 76.4687 7.08509 76.1169L11.0712 72.0424C11.3297 71.7782 11.2621 71.3063 10.9428 71.1432C6.85035 69.053 5.61542 68.9778 0.462506 68.9751C0.153649 68.9749 -0.0782271 68.6714 0.0248074 68.3485C1.43748 63.9212 10.5705 52.8678 20.7478 50.003C20.8977 49.9608 21.022 49.845 21.0849 49.6883C28.1054 32.1959 43.9154 20 62.2939 20H75.1752C94.0942 20 110.291 32.9238 116.981 51.2451Z" fill="#888888"/>
<path fill-rule="evenodd" clip-rule="evenodd" d="M117.04 51.364C113.685 50.471 110.15 50 106.5 50C85.8069 50 68.8303 65.1366 67.1386 86.4855C67.0591 86.4786 66.9795 86.4719 66.8998 86.4654C65.4461 64.6573 48.3617 50 27.5 50C23.8637 50 20.3421 50.4453 16.9981 51.2963C16.9453 51.407 16.8602 51.4954 16.756 51.5463C8.27849 55.6905 1.25259 64.5052 0.0249352 68.3453C0.00888632 68.3955 0.000940778 68.4453 0.000127294 68.4936C-0.00586798 68.7568 0.200653 68.9749 0.462506 68.9751C5.61542 68.9778 6.85035 69.053 10.9428 71.1432C11.2621 71.3063 11.3297 71.7782 11.0712 72.0424L7.08509 76.1169C6.74099 76.4687 6.98956 77.1505 7.4564 77.1866C7.69145 77.2048 7.93346 77.2305 8.18193 77.2633C9.92122 77.493 11.9774 78.072 14.1871 78.8769C14.3589 78.9395 14.4856 79.1029 14.519 79.3C18.449 102.47 36.7911 120 58.825 120H62.2687L62.2939 120L71.7062 120L75.1752 120C97.2091 120 115.551 102.47 119.481 79.3C119.515 79.1029 119.641 78.9395 119.813 78.8769C121.5 78.2625 123.097 77.7797 124.532 77.4834C125.245 77.3361 125.919 77.2349 126.543 77.1866C127.01 77.1505 127.258 76.4687 126.914 76.1169L122.928 72.0424C122.67 71.7782 122.737 71.3063 123.056 71.1432C127.149 69.053 128.384 68.9778 133.537 68.9751C133.799 68.9749 134.007 68.7556 134 68.4916C133.999 68.4439 133.991 68.3948 133.975 68.3453C132.748 64.5052 125.722 55.6905 117.244 51.5463C117.162 51.5063 117.092 51.443 117.04 51.364Z" fill="#EDEDED"/>
<path fill-rule="evenodd" clip-rule="evenodd" d="M38.5152 114.651C38.9168 114.072 39.2953 113.473 39.6485 112.855C43.349 106.378 47.5465 100.594 52.4173 95.0389C61.2333 84.9835 60.0029 69.0024 48.4191 62.3205C40.7931 57.9215 31.0718 59.1623 25.2212 65.7408C21.2237 70.2357 17.71 74.5617 14.4354 79.0809C14.4766 79.1454 14.5055 79.2199 14.5191 79.3C17.146 94.7873 26.2118 107.754 38.5152 114.651Z" fill="#888888"/>
<path fill-rule="evenodd" clip-rule="evenodd" d="M119.693 78.9422C115.69 74.4023 111.46 70.15 106.644 65.7599C100.138 59.8289 90.3398 59.6111 83.2154 64.7831C72.3935 72.6393 72.8404 88.6615 82.6591 97.7403C87.9807 102.661 92.6808 107.867 96.971 113.779C108.516 106.695 116.961 94.157 119.481 79.3C119.506 79.1525 119.583 79.0239 119.693 78.9422Z" fill="#888888"/>
<rect x="66.2783" y="82.4829" width="2" height="12" rx="1" fill="#2D2D2D"/>
<ellipse cx="67.3255" cy="82.0763" rx="7.41811" ry="4.87696" fill="#2D2D2D"/>
<circle cx="63.5001" cy="80.5" r="1.5" fill="white"/>
<path d="M59.2092 91.3491C62.9987 94.8836 71.4198 94.8836 75.2092 91.3491" stroke="#2D2D2D" stroke-width="2.5" stroke-linecap="round"/>
<ellipse cx="26.0001" cy="87.5" rx="6" ry="4.5" fill="#FFD4DC"/>
<ellipse cx="108" cy="87.5" rx="6" ry="4.5" fill="#FFD4DC"/>
<circle r="1" transform="matrix(1 0 0 -1 35.0001 98.5)" fill="#EDEDED"/>
<circle r="1" transform="matrix(1 0 0 -1 39.0001 97.5)" fill="#EDEDED"/>
<circle r="1" transform="matrix(1 0 0 -1 36.0001 94.5)" fill="#EDEDED"/>
<circle cx="99.0001" cy="98.5" r="1" transform="rotate(-180 99.0001 98.5)" fill="#EDEDED"/>
<circle cx="95.0001" cy="97.5" r="1" transform="rotate(-180 95.0001 97.5)" fill="#EDEDED"/>
<circle cx="98.0001" cy="94.5" r="1" transform="rotate(-180 98.0001 94.5)" fill="#EDEDED"/>
<circle r="11" transform="matrix(-1 0 0 1 40.0001 76)" fill="white"/>
<circle cx="40.0001" cy="76" r="8" fill="#2D2D2D"/>
<ellipse cx="40.34" cy="72.4374" rx="2.3399" ry="2.4374" fill="white"/>
<ellipse cx="44.6001" cy="76.6667" rx="1.6" ry="1.66667" fill="white"/>
<circle r="11" transform="matrix(-1 0 0 1 40.0001 76)" fill="white"/>
<circle cx="40.0001" cy="76" r="8" fill="#2D2D2D"/>
<ellipse cx="40.34" cy="73.4374" rx="2.3399" ry="2.4374" fill="white"/>
<ellipse cx="44.6001" cy="77.6667" rx="1.6" ry="1.66667" fill="white"/>
<circle r="11" transform="matrix(-1 0 0 1 94.0001 76)" fill="white"/>
<circle r="8" transform="matrix(-1 0 0 1 94.0001 76)" fill="#2D2D2D"/>
<ellipse rx="2.3399" ry="2.4374" transform="matrix(-1 0 0 1 93.6602 73.4374)" fill="white"/>
<ellipse rx="1.6" ry="1.66667" transform="matrix(-1 0 0 1 89.4001 77.6667)" fill="white"/>
<path d="M65.0203 26.2373C65.2453 26.2003 65.4706 26.1524 65.6956 26.0932C69.5418 25.0813 71.845 21.164 70.8399 17.3437C69.8348 13.5234 65.9021 11.2467 62.0559 12.2586C61.6826 12.3568 61.3237 12.4824 60.981 12.6327C61.769 9.96129 61.0097 6.97144 58.8078 5.07725C55.8293 2.51485 51.339 2.92781 48.7785 5.99961C47.4135 7.63722 46.8724 9.6999 47.1161 11.6572C46.8547 11.5207 46.5825 11.3984 46.3 11.2916C42.5593 9.87761 38.4472 11.7279 37.1153 15.4243C35.7833 19.1207 37.736 23.2636 41.4767 24.6776C41.6786 24.7539 41.8816 24.8207 42.0851 24.8783C41.9362 25.0285 41.7924 25.1866 41.6542 25.3524C39.0937 28.4242 39.4326 32.9916 42.4111 35.554C45.3897 38.1164 49.88 37.7034 52.4405 34.6316C52.6679 34.3588 52.8724 34.0742 53.0542 33.7803C53.8639 35.3425 55.2371 36.6295 57.0135 37.301C60.7542 38.715 64.8663 36.8648 66.1983 33.1683C67.0684 30.7534 66.5367 28.1479 65.0203 26.2373Z" fill="#F09AA5"/>
<g style="mix-blend-mode:multiply">
<circle cx="54.0509" cy="22.1784" r="5.39568" transform="rotate(99.9151 54.0509 22.1784)" fill="#ED653B" fill-opacity="0.5"/>
</g>
<g style="mix-blend-mode:multiply">
<path fill-rule="evenodd" clip-rule="evenodd" d="M50.416 26.1671C51.1481 26.8355 52.0729 27.3103 53.1218 27.4936C56.0573 28.0067 58.8529 26.0431 59.366 23.1076C59.8276 20.4665 58.2843 17.9386 55.8321 17.0845C57.1489 18.2867 57.8421 20.1155 57.5123 22.0021C56.9992 24.9376 54.2036 26.9012 51.2682 26.3881C50.9739 26.3367 50.6893 26.2623 50.416 26.1671Z" fill="#ED653B" fill-opacity="0.5"/>
</g>
<path d="M13.7366 103.451C27.2025 118.631 35.9515 122.381 57.2972 128.061" stroke="#BBD468" stroke-width="1.84133" stroke-linecap="round"/>
<path d="M8.0763 101.336C8.65276 102.091 9.40058 102.737 10.2013 103.283C12.6534 104.957 15.4437 102.639 14.3292 99.8875C13.9776 99.0195 13.5346 98.1726 12.977 97.4433C12.4528 96.7575 11.8017 96.1421 11.1062 95.5997C8.72696 93.7443 5.72677 95.8981 6.73211 98.7429C7.06231 99.6772 7.49895 100.581 8.0763 101.336Z" fill="#BBD468"/>
<path d="M18.3674 106.099C18.3561 106.79 18.4547 107.501 18.6078 108.179C18.9862 109.852 21.0074 109.885 21.4405 108.225C21.6157 107.553 21.7377 106.845 21.749 106.154C21.7603 105.464 21.6617 104.752 21.5086 104.075C21.1302 102.402 19.1091 102.368 18.676 104.028C18.5007 104.7 18.3788 105.408 18.3674 106.099Z" fill="#BBD468"/>
<path d="M16.1556 111.738C16.8463 111.735 17.5559 111.622 18.2298 111.455C19.8948 111.042 19.8864 109.02 18.218 108.622C17.5427 108.46 16.8322 108.353 16.1415 108.356C15.4508 108.359 14.7411 108.472 14.0672 108.639C12.4022 109.052 12.4106 111.073 14.079 111.472C14.7543 111.633 15.4649 111.741 16.1556 111.738Z" fill="#BBD468"/>
<path d="M25.2354 111.973C25.2241 112.663 25.3227 113.375 25.4758 114.052C25.8542 115.726 27.8753 115.759 28.3084 114.099C28.4837 113.427 28.6056 112.719 28.617 112.028C28.6283 111.338 28.5297 110.626 28.3766 109.949C27.9982 108.275 25.9771 108.242 25.544 109.902C25.3687 110.574 25.2468 111.282 25.2354 111.973Z" fill="#BBD468"/>
<path d="M23.9567 118.467C24.6265 118.298 25.2881 118.018 25.9021 117.693C27.419 116.893 26.9249 114.932 25.2095 114.946C24.5153 114.952 23.7997 115.019 23.13 115.188C22.4602 115.356 21.7986 115.637 21.1846 115.961C19.6677 116.762 20.1618 118.722 21.8771 118.708C22.5714 118.702 23.287 118.636 23.9567 118.467Z" fill="#BBD468"/>
<path d="M32.9176 117.351C32.9539 118.041 33.1014 118.744 33.3008 119.409C33.7936 121.052 35.8122 120.946 36.1299 119.26C36.2584 118.578 36.3313 117.863 36.295 117.173C36.2587 116.483 36.1112 115.78 35.9118 115.115C35.419 113.472 33.4004 113.578 33.0827 115.264C32.9542 115.946 32.8813 116.661 32.9176 117.351Z" fill="#BBD468"/>
<path d="M32.2114 123.236C32.8499 122.973 33.4644 122.6 34.0255 122.191C35.4117 121.18 34.6412 119.312 32.9456 119.572C32.2594 119.677 31.5608 119.846 30.9223 120.109C30.2837 120.372 29.6692 120.745 29.1082 121.154C27.7219 122.164 28.4924 124.033 30.188 123.773C30.8743 123.668 31.5728 123.499 32.2114 123.236Z" fill="#BBD468"/>
<path d="M41.3993 120.786C41.4934 121.471 41.6994 122.159 41.954 122.805C42.5831 124.401 44.5857 124.125 44.7606 122.419C44.8314 121.728 44.8438 121.01 44.7497 120.325C44.6556 119.641 44.4496 118.953 44.195 118.307C43.5658 116.711 41.5633 116.986 41.3884 118.693C41.3176 119.383 41.3051 120.102 41.3993 120.786Z" fill="#BBD468"/>
<path d="M41.5637 127.551C42.1667 127.214 42.7328 126.771 43.2416 126.299C44.4986 125.132 43.5126 123.367 41.8597 123.826C41.1907 124.012 40.517 124.262 39.914 124.599C39.311 124.936 38.7449 125.378 38.2362 125.851C36.9791 127.018 37.9651 128.783 39.6181 128.324C40.2871 128.138 40.9608 127.888 41.5637 127.551Z" fill="#BBD468"/>
<path d="M119.341 102.987C105.876 118.166 97.1265 121.916 75.7808 127.596" stroke="#BBD468" stroke-width="1.84133" stroke-linecap="round"/>
<path d="M125.002 100.872C124.425 101.626 123.677 102.272 122.877 102.819C120.425 104.492 117.634 102.174 118.749 99.4228C119.1 98.5548 119.544 97.7079 120.101 96.9786C120.625 96.2928 121.276 95.6774 121.972 95.135C124.351 93.2796 127.351 95.4334 126.346 98.2781C126.016 99.2125 125.579 100.116 125.002 100.872Z" fill="#BBD468"/>
<path d="M114.711 105.634C114.722 106.325 114.623 107.037 114.47 107.714C114.092 109.387 112.071 109.42 111.638 107.76C111.462 107.089 111.34 106.38 111.329 105.69C111.318 104.999 111.416 104.287 111.569 103.61C111.948 101.937 113.969 101.904 114.402 103.564C114.577 104.235 114.699 104.944 114.711 105.634Z" fill="#BBD468"/>
<path d="M116.923 111.273C116.232 111.27 115.522 111.157 114.848 110.99C113.183 110.577 113.192 108.556 114.86 108.157C115.535 107.995 116.246 107.888 116.937 107.891C117.627 107.894 118.337 108.007 119.011 108.174C120.676 108.587 120.667 110.608 118.999 111.007C118.324 111.169 117.613 111.276 116.923 111.273Z" fill="#BBD468"/>
<path d="M107.843 111.508C107.854 112.199 107.755 112.91 107.602 113.588C107.224 115.261 105.203 115.294 104.77 113.634C104.594 112.962 104.472 112.254 104.461 111.563C104.45 110.873 104.548 110.161 104.701 109.484C105.08 107.811 107.101 107.777 107.534 109.437C107.709 110.109 107.831 110.817 107.843 111.508Z" fill="#BBD468"/>
<path d="M109.121 118.002C108.452 117.833 107.79 117.553 107.176 117.229C105.659 116.428 106.153 114.468 107.869 114.482C108.563 114.487 109.278 114.554 109.948 114.723C110.618 114.892 111.279 115.172 111.893 115.496C113.41 116.297 112.916 118.257 111.201 118.243C110.507 118.238 109.791 118.171 109.121 118.002Z" fill="#BBD468"/>
<path d="M100.16 116.886C100.124 117.576 99.9767 118.279 99.7773 118.944C99.2845 120.587 97.2658 120.481 96.9482 118.795C96.8196 118.113 96.7468 117.398 96.7831 116.708C96.8194 116.019 96.9668 115.315 97.1663 114.65C97.6591 113.007 99.6777 113.113 99.9953 114.799C100.124 115.481 100.197 116.196 100.16 116.886Z" fill="#BBD468"/>
<path d="M100.867 122.771C100.228 122.508 99.6136 122.135 99.0526 121.726C97.6664 120.716 98.4369 118.847 100.132 119.107C100.819 119.212 101.517 119.381 102.156 119.644C102.794 119.908 103.409 120.28 103.97 120.689C105.356 121.7 104.586 123.569 102.89 123.308C102.204 123.203 101.505 123.034 100.867 122.771Z" fill="#BBD468"/>
<path d="M91.6788 120.322C91.5847 121.006 91.3787 121.694 91.124 122.34C90.4949 123.936 88.4924 123.661 88.3175 121.954C88.2467 121.263 88.2342 120.545 88.3283 119.861C88.4225 119.176 88.6285 118.488 88.8831 117.842C89.5122 116.246 91.5148 116.522 91.6897 118.228C91.7604 118.919 91.7729 119.637 91.6788 120.322Z" fill="#BBD468"/>
<path d="M91.5143 127.086C90.9114 126.749 90.3453 126.307 89.8365 125.834C88.5794 124.667 89.5655 122.902 91.2184 123.361C91.8874 123.547 92.5611 123.797 93.1641 124.134C93.767 124.471 94.3331 124.914 94.8419 125.386C96.099 126.553 95.1129 128.318 93.46 127.859C92.791 127.673 92.1173 127.423 91.5143 127.086Z" fill="#BBD468"/>
<path d="M50.5247 124.237C50.6953 124.209 50.8662 124.173 51.0369 124.128C53.9537 123.36 55.7003 120.39 54.9381 117.492C54.1759 114.595 51.1934 112.869 48.2766 113.636C47.9935 113.711 47.7213 113.806 47.4615 113.92C48.0591 111.894 47.4832 109.626 45.8134 108.19C43.5546 106.247 40.1493 106.56 38.2075 108.889C37.1723 110.131 36.762 111.696 36.9468 113.18C36.7486 113.077 36.5421 112.984 36.3279 112.903C33.4911 111.83 30.3726 113.234 29.3625 116.037C28.3524 118.84 29.8333 121.982 32.6701 123.054C32.8232 123.112 32.9771 123.163 33.1315 123.206C33.0186 123.32 32.9095 123.44 32.8047 123.566C30.8629 125.895 31.1199 129.359 33.3787 131.302C35.6376 133.246 39.0428 132.932 40.9846 130.603C41.1571 130.396 41.3122 130.18 41.4501 129.957C42.0641 131.142 43.1055 132.118 44.4526 132.627C47.2894 133.7 50.4079 132.296 51.418 129.493C52.0779 127.662 51.6747 125.686 50.5247 124.237Z" fill="#F09AA5"/>
<g style="mix-blend-mode:multiply">
<circle cx="42.2059" cy="121.159" r="4.09188" transform="rotate(99.9151 42.2059 121.159)" fill="#ED653B" fill-opacity="0.5"/>
</g>
<g style="mix-blend-mode:multiply">
<path fill-rule="evenodd" clip-rule="evenodd" d="M39.4495 124.184C40.0047 124.691 40.706 125.051 41.5014 125.19C43.7275 125.579 45.8476 124.09 46.2367 121.864C46.5868 119.861 45.4164 117.944 43.5567 117.296C44.5553 118.208 45.0811 119.595 44.831 121.025C44.4419 123.251 42.3218 124.741 40.0957 124.351C39.8725 124.312 39.6567 124.256 39.4495 124.184Z" fill="#ED653B" fill-opacity="0.5"/>
</g>
<path d="M98.5472 124.114C98.7178 124.086 98.8887 124.049 99.0593 124.005C101.976 123.237 103.723 120.266 102.961 117.369C102.198 114.472 99.2159 112.746 96.2991 113.513C96.0159 113.587 95.7438 113.683 95.4839 113.797C96.0815 111.771 95.5056 109.503 93.8359 108.067C91.577 106.124 88.1718 106.437 86.23 108.766C85.1948 110.008 84.7845 111.572 84.9693 113.057C84.771 112.953 84.5646 112.861 84.3504 112.78C81.5136 111.707 78.3951 113.11 77.385 115.914C76.3749 118.717 77.8557 121.859 80.6925 122.931C80.8456 122.989 80.9996 123.04 81.154 123.083C81.041 123.197 80.932 123.317 80.8272 123.443C78.8854 125.772 79.1424 129.236 81.4012 131.179C83.66 133.122 87.0653 132.809 89.0071 130.48C89.1795 130.273 89.3346 130.057 89.4725 129.834C90.0866 131.019 91.1279 131.995 92.4751 132.504C95.3119 133.576 98.4304 132.173 99.4405 129.37C100.1 127.539 99.6971 125.563 98.5472 124.114Z" fill="#F09AA5"/>
<g style="mix-blend-mode:multiply">
<circle cx="90.2284" cy="121.036" r="4.09188" transform="rotate(99.9151 90.2284 121.036)" fill="#ED653B" fill-opacity="0.5"/>
</g>
<g style="mix-blend-mode:multiply">
<path fill-rule="evenodd" clip-rule="evenodd" d="M87.4719 124.061C88.0271 124.568 88.7284 124.928 89.5238 125.067C91.75 125.456 93.8701 123.967 94.2592 121.74C94.6093 119.737 93.4388 117.82 91.5792 117.173C92.5778 118.084 93.1036 119.471 92.8535 120.902C92.4643 123.128 90.3442 124.617 88.1181 124.228C87.8949 124.189 87.6792 124.133 87.4719 124.061Z" fill="#ED653B" fill-opacity="0.5"/>
</g>
<path d="M77.4124 120.852C77.5617 120.726 77.7064 120.592 77.846 120.449C80.2313 118.018 80.2069 114.126 77.7916 111.756C75.3762 109.387 71.4845 109.438 69.0991 111.869C68.8676 112.105 68.6587 112.355 68.4725 112.616C67.8802 110.305 66.0099 108.439 63.5592 108.012C60.244 107.434 57.1221 109.707 56.5862 113.09C56.3006 114.894 56.8075 116.648 57.8455 117.981C57.5933 117.996 57.3394 118.025 57.0848 118.07C53.7127 118.671 51.4995 121.836 52.1414 125.14C52.7833 128.443 56.0373 130.634 59.4093 130.033C59.5913 130.001 59.7699 129.961 59.9449 129.914C59.9013 130.09 59.8648 130.269 59.8359 130.452C59.3 133.835 61.5531 137.046 64.8683 137.624C68.1835 138.202 71.3054 135.928 71.8413 132.546C71.8889 132.245 71.9145 131.946 71.9193 131.65C73.2003 132.444 74.775 132.788 76.3764 132.503C79.7484 131.902 81.9616 128.737 81.3197 125.433C80.9003 123.275 79.3661 121.592 77.4124 120.852Z" fill="#94D9FF"/>
<g style="mix-blend-mode:multiply">
<circle cx="67.5627" cy="122.679" r="4.62138" transform="rotate(69.1033 67.5627 122.679)" fill="#94D9FF" fill-opacity="0.5"/>
</g>
<g style="mix-blend-mode:multiply">
<path fill-rule="evenodd" clip-rule="evenodd" d="M66.6387 127.207C67.4704 127.378 68.359 127.321 69.211 126.996C71.5955 126.086 72.7904 123.415 71.8801 121.03C71.061 118.885 68.8166 117.702 66.6381 118.15C68.1341 118.457 69.4464 119.498 70.0315 121.03C70.9419 123.415 69.7469 126.086 67.3625 126.996C67.1234 127.087 66.8814 127.157 66.6387 127.207Z" fill="#94D9FF" fill-opacity="0.5"/>
</g>
</svg>
