<svg width="120" height="125" viewBox="0 0 120 125" fill="none" xmlns="http://www.w3.org/2000/svg">
<path fill-rule="evenodd" clip-rule="evenodd" d="M39.6053 73.9913C38.2672 76.0014 36.5531 77.7733 34.5541 79.2227C35.4842 81.2991 36 83.591 36 86C36 86.0906 35.9993 86.181 35.9978 86.2712C39.7889 86.9656 43.1453 88.9535 45.621 91.7758C49.011 87.6208 53.9724 85 59.5 85C59.8355 85 60.1689 85.0097 60.5 85.0287C60.8311 85.0097 61.1645 85 61.5 85C67.0276 85 71.989 87.6208 75.379 91.7758C77.8547 88.9535 81.2111 86.9656 85.0022 86.2712C85.0007 86.181 85 86.0906 85 86C85 84.6902 85.1525 83.415 85.4412 82.1902C82.5373 83.7955 79.1916 84.7102 75.6303 84.7102C72.3658 84.7102 69.2825 83.9416 66.5546 82.5771C63.8266 83.9416 60.7433 84.7102 57.4789 84.7102C49.7154 84.7102 42.9764 80.3632 39.6053 73.9913ZM104.988 102.83C113.474 101.656 120 94.5684 120 86C120 81.9973 118.576 78.3178 116.193 75.4133C118.588 72.1264 120 68.089 120 63.7249C120 52.6868 110.97 43.7387 99.8319 43.7387C94.9856 43.7387 90.5386 45.4327 87.0608 48.2557C83.812 46.037 79.8742 44.738 75.6303 44.738C72.3658 44.738 69.2825 45.5066 66.5546 46.8711C63.8266 45.5066 60.7433 44.738 57.4789 44.738C50.2074 44.738 43.8347 48.5515 40.2863 54.2704C36.6903 48.0045 29.5779 43.7387 21.3913 43.7387C9.57721 43.7387 0 52.6223 0 63.5808C0 68.1792 1.68635 72.4122 4.5167 75.7768C2.30891 78.622 1 82.1625 1 86C1 94.5684 7.52554 101.656 16.0122 102.83C16.0041 103.052 16 103.276 16 103.5C16 113.165 23.6112 121 33 121C37.3714 121 41.3574 119.302 44.3693 116.511C47.7179 121.646 53.2466 125 59.5 125C59.8355 125 60.1689 124.99 60.5 124.971C60.8311 124.99 61.1645 125 61.5 125C67.7534 125 73.2821 121.646 76.6307 116.511C79.6426 119.302 83.6286 121 88 121C97.3888 121 105 113.165 105 103.5C105 103.276 104.996 103.052 104.988 102.83Z" fill="#FAFAFA"/>
<path fill-rule="evenodd" clip-rule="evenodd" d="M100.489 101.083C108.127 100.029 114 93.6622 114 85.9649C114 82.3691 112.718 79.0636 110.574 76.4544C112.73 73.5017 114 69.8747 114 65.9543C114 56.0384 105.873 48 95.8487 48C91.4871 48 87.4847 49.5217 84.3547 52.0577C81.4308 50.0646 77.8868 48.8976 74.0672 48.8976C71.1292 48.8976 68.3543 49.5881 65.8991 50.8139C63.444 49.5881 60.669 48.8976 57.731 48.8976C51.1867 48.8976 45.4513 52.3234 42.2577 57.4609C39.0213 51.8321 32.6201 48 25.2522 48C14.6195 48 6 55.9805 6 65.8248C6 69.9557 7.51771 73.7584 10.065 76.781C8.07802 79.3369 6.9 82.5175 6.9 85.9649C6.9 93.6622 12.773 100.029 20.411 101.083C20.4037 101.283 20.4 101.484 20.4 101.686C20.4 110.368 27.25 117.407 35.7 117.407C39.6342 117.407 43.2216 115.881 45.9323 113.374C48.9461 117.987 53.922 121 59.55 121C59.8519 121 60.152 120.991 60.45 120.974C60.748 120.991 61.048 121 61.35 121C66.978 121 71.9539 117.987 74.9677 113.374C77.6784 115.881 81.2658 117.407 85.2 117.407C93.65 117.407 100.5 110.368 100.5 101.686C100.5 101.484 100.496 101.283 100.489 101.083ZM41.6448 75.177C40.4405 76.9827 38.8978 78.5745 37.0986 79.8766C37.9358 81.7419 38.4 83.8008 38.4 85.9649C38.4 86.0462 38.3993 86.1274 38.398 86.2085C41.81 86.8323 44.8308 88.6181 47.0589 91.1535C50.1099 87.4209 54.5751 85.0665 59.55 85.0665C59.8519 85.0665 60.152 85.0752 60.45 85.0923C60.748 85.0752 61.048 85.0665 61.35 85.0665C66.3249 85.0665 70.7901 87.4209 73.8411 91.1535C76.0692 88.6181 79.09 86.8323 82.502 86.2085C82.5007 86.1274 82.5 86.0462 82.5 85.9649C82.5 84.7882 82.6372 83.6426 82.897 82.5424C80.2835 83.9845 77.2724 84.8062 74.0672 84.8062C71.1292 84.8062 68.3543 84.1157 65.8991 82.8899C63.444 84.1157 60.669 84.8062 57.731 84.8062C50.7438 84.8062 44.6788 80.9011 41.6448 75.177Z" fill="white"/>
<path d="M3.50607 37.8715C3.22398 36.8118 3.87655 35.7781 4.95647 35.5874C8.28356 34.9998 15.4137 34.3189 21.3161 37.6971C29.3101 42.2723 32.025 52.5606 32.025 52.5606C32.025 52.5606 21.0259 56.7468 13.0318 52.1715C7.03331 48.7384 4.43133 41.3475 3.50607 37.8715Z" fill="#FFECD4"/>
<path d="M114.089 37.8715C114.371 36.8118 113.719 35.7781 112.639 35.5874C109.312 34.9998 102.182 34.3189 96.2792 37.6971C88.2851 42.2723 85.5703 52.5606 85.5703 52.5606C85.5703 52.5606 96.5694 56.7468 104.563 52.1715C110.562 48.7384 113.164 41.3475 114.089 37.8715Z" fill="#FFECD4"/>
<g style="mix-blend-mode:multiply">
<path d="M8.3296 40.6276C8.01661 39.5765 8.67203 38.5418 9.75731 38.3844C12.167 38.0348 16.4547 37.8336 20.0578 39.8957C25.3998 42.9532 27.2141 49.8284 27.2141 49.8284C27.2141 49.8284 19.8638 52.6259 14.5217 49.5684C10.8389 47.4606 9.07194 43.1204 8.3296 40.6276Z" fill="#FFECD4" fill-opacity="0.8"/>
</g>
<g style="mix-blend-mode:multiply">
<path d="M109.682 41.0079C109.995 39.9569 109.34 38.9222 108.254 38.7647C105.845 38.4152 101.557 38.2139 97.9539 40.2761C92.6118 43.3335 90.7976 50.2088 90.7976 50.2088C90.7976 50.2088 98.1478 53.0062 103.49 49.9487C107.173 47.8409 108.94 43.5007 109.682 41.0079Z" fill="#FFECD4" fill-opacity="0.8"/>
</g>
<path d="M20.5384 71.3629C19.1695 88.9632 33.0822 104 50.7357 104H67.2498C84.9087 104 98.8231 88.9546 97.4461 71.3496L94.5984 34.9449C93.6737 23.1221 83.8101 14 71.9513 14H46.0181C34.1554 14 24.29 23.1279 23.3702 34.9548L20.5384 71.3629Z" fill="url(#paint0_linear_226_14)"/>
<ellipse cx="40" cy="73.5" rx="4" ry="4.5" fill="#3A211F"/>
<circle cx="41.75" cy="71.75" r="0.75" fill="white"/>
<ellipse rx="4" ry="4.5" transform="matrix(-1 0 0 1 80 73.5)" fill="#3A211F"/>
<circle r="0.75" transform="matrix(-1 0 0 1 81.75 71.75)" fill="white"/>
<rect x="60.9924" y="82.135" width="1.66414" height="7.21125" rx="0.832068" fill="#3A211F"/>
<path d="M67.714 79.4191C67.714 77.8665 65.0918 76.6078 61.857 76.6078C58.6223 76.6078 56.0001 77.8665 56.0001 79.4191C56.0001 80.9718 58.6223 84.6611 61.8571 84.6611C65.0918 84.6611 67.714 80.9718 67.714 79.4191Z" fill="#3A211F"/>
<circle cx="58.5625" cy="79.1703" r="1.09818" fill="white"/>
<path fill-rule="evenodd" clip-rule="evenodd" d="M49.6286 2C45.0784 2 41.1921 4.66469 39.6486 8.4202C38.2929 7.83718 36.7847 7.51215 35.1956 7.51215C29.3378 7.51215 24.5804 11.9283 24.5052 17.4027C18.8418 19.0882 15 22.3639 15 26.1286C15 28.8496 17.0068 31.315 20.2577 33.1093C19.5442 34.4528 19.1429 35.9675 19.1429 37.5701C19.1429 43.1052 23.9295 47.5923 29.8341 47.5923C31.4233 47.5923 32.9315 47.2672 34.2872 46.6842C35.8306 50.4398 39.717 53.1044 44.2672 53.1044C47.2465 53.1044 49.9412 51.962 51.88 50.119C53.8296 52.0587 56.5953 53.2697 59.6627 53.2697C62.4913 53.2697 65.0633 52.2399 66.9755 50.5585C68.8661 52.1419 71.361 53.1044 74.0957 53.1044C78.5711 53.1044 82.4043 50.5266 83.9977 46.8685C85.2324 47.3353 86.5813 47.5923 87.9943 47.5923C93.8989 47.5923 98.6856 43.1052 98.6856 37.5701C98.6856 36.0055 98.3031 34.5247 97.621 33.2053C100.324 31.3867 102 28.8541 102 26.0531C102 21.937 98.3798 18.4005 93.2029 16.8577C92.8317 11.6382 88.1977 7.51215 82.5356 7.51215C81.1226 7.51215 79.7737 7.7691 78.539 8.23588C76.9456 4.5778 73.1124 2 68.637 2C64.4989 2 60.9099 4.20388 59.1328 7.42784C57.3557 4.20388 53.7667 2 49.6286 2Z" fill="#FAFAFA"/>
<path fill-rule="evenodd" clip-rule="evenodd" d="M50.7222 5.16012C46.7329 5.16012 43.3256 7.49636 41.9725 10.789C40.7839 10.2778 39.4616 9.9928 38.0683 9.9928C32.9326 9.9928 28.7617 13.8645 28.6958 18.6641C23.7306 20.1418 20.3624 23.0137 20.3624 26.3143C20.3624 28.6998 22.1218 30.8613 24.9719 32.4345C24.3464 33.6123 23.9946 34.9403 23.9946 36.3453C23.9946 41.198 28.1911 45.1319 33.3678 45.1319C34.7611 45.1319 36.0834 44.847 37.272 44.3358C38.6252 47.6284 42.0324 49.9646 46.0218 49.9646C48.6338 49.9646 50.9963 48.9631 52.696 47.3473C54.4053 49.0479 56.83 50.1095 59.5193 50.1095C61.9992 50.1095 64.2542 49.2067 65.9307 47.7325C67.5882 49.1207 69.7756 49.9646 72.1732 49.9646C76.0969 49.9646 79.4575 47.7046 80.8545 44.4974C81.937 44.9067 83.1196 45.1319 84.3584 45.1319C89.5351 45.1319 93.7317 41.198 93.7317 36.3453C93.7317 34.9736 93.3964 33.6753 92.7984 32.5186C95.1678 30.9242 96.6375 28.7038 96.6375 26.2481C96.6375 22.6395 93.4637 19.5389 88.9249 18.1863C88.5995 13.6102 84.5367 9.9928 79.5726 9.9928C78.3338 9.9928 77.1512 10.2181 76.0687 10.6273C74.6717 7.42017 71.3111 5.16012 67.3874 5.16012C63.7594 5.16012 60.6128 7.09231 59.0548 9.91882C57.4968 7.09231 54.3502 5.16012 50.7222 5.16012Z" fill="white"/>
<circle cx="36" cy="86" r="5" fill="#FFC6AD"/>
<circle cx="85" cy="86" r="5" fill="#FFC6AD"/>
<path d="M47.3565 23.4298C51.7226 20.5833 53.4976 12.7118 53.4976 12.7118C53.4976 12.7118 45.579 11.16 41.2129 14.0065C36.8468 16.853 35.0718 24.7245 35.0718 24.7245C35.0718 24.7245 42.9904 26.2763 47.3565 23.4298Z" fill="#34876F"/>
<path d="M76.3233 32.1913C71.9377 28.207 63.0622 28.1947 63.0622 28.1947C63.0622 28.1947 63.9234 37.0284 68.309 41.0127C72.6945 44.9971 81.5701 45.0093 81.5701 45.0093C81.5701 45.0093 80.7089 36.1756 76.3233 32.1913Z" fill="#34876F"/>
<path d="M63.5629 88.174C58.4537 87.1438 51.8911 90.4186 51.8911 90.4186C51.8911 90.4186 56.6717 95.9808 61.781 97.0111C66.8902 98.0413 73.4528 94.7665 73.4528 94.7665C73.4528 94.7665 68.6721 89.2043 63.5629 88.174Z" fill="#34876F"/>
<path d="M74.1306 107.107C75.6142 109.9 80.2865 111.393 80.2865 111.393C80.2865 111.393 81.6649 106.685 80.1813 103.893C78.6976 101.1 74.0253 99.6072 74.0253 99.6072C74.0253 99.6072 72.647 104.315 74.1306 107.107Z" fill="#34876F"/>
<path d="M48.3862 39.8239C48.5101 39.7527 48.6317 39.675 48.7508 39.5907C50.7853 38.1508 51.2753 35.3453 49.8451 33.3245C48.4149 31.3036 45.6062 30.8325 43.5716 32.2724C43.3741 32.4122 43.1911 32.5649 43.0231 32.7284C42.8979 30.9873 41.7946 29.3998 40.0858 28.7725C37.7741 27.9239 35.2298 29.154 34.4028 31.5199C33.962 32.7812 34.0982 34.1107 34.6718 35.2058C34.4883 35.1832 34.3016 35.1713 34.1124 35.1708C31.6061 35.1638 29.5999 37.1542 29.6313 39.6164C29.6627 42.0787 31.72 44.0804 34.2263 44.0874C34.3616 44.0878 34.4954 44.0824 34.6275 44.0713C34.5732 44.1923 34.5235 44.3167 34.4789 44.4444C33.6519 46.8103 34.8555 49.4162 37.1671 50.2648C39.4788 51.1133 42.0231 49.8833 42.8501 47.5173C42.9235 47.3072 42.9809 47.0952 43.023 46.8827C43.8418 47.6214 44.9307 48.0746 46.121 48.0779C48.6272 48.0849 50.6335 46.0945 50.6021 43.6323C50.5815 42.0237 49.6963 40.6116 48.3862 39.8239Z" fill="#FFCE05"/>
<g style="mix-blend-mode:multiply">
<circle cx="41.0558" cy="39.8549" r="3.38163" transform="rotate(79.3678 41.0558 39.8549)" fill="#FED402"/>
</g>
<defs>
<linearGradient id="paint0_linear_226_14" x1="57.7454" y1="104" x2="57.5032" y2="44.9678" gradientUnits="userSpaceOnUse">
<stop stop-color="#FFECD5"/>
<stop offset="1" stop-color="#FFE9CF"/>
</linearGradient>
</defs>
</svg>
