<svg width="125" height="125" viewBox="0 0 125 125" fill="none" xmlns="http://www.w3.org/2000/svg">
<circle cx="19.5" cy="26.5232" r="19.5" fill="#FFAC42"/>
<circle cx="18.5" cy="26.5" r="13.5" fill="#FFE29C"/>
<circle cx="105.5" cy="26.5232" r="19.5" fill="#FFAC42"/>
<circle cx="105.5" cy="26.5" r="13.5" fill="#FFE29C"/>
<path d="M57.8304 4.59687C57.7769 2.11216 59.7478 0.0545486 62.2325 0.00106334C64.7172 -0.052422 66.7748 1.91847 66.8283 4.40318L66.9042 7.9293L68.0993 4.64586C68.9493 2.31046 71.5316 1.10632 73.867 1.95634C76.2024 2.80635 77.4065 5.38864 76.5565 7.72404L72.4523 19.0004C71.6023 21.3358 69.02 22.5399 66.6846 21.6899C65.9368 21.4177 65.3051 20.968 64.8196 20.4057C64.189 20.7665 63.4619 20.9795 62.6844 20.9962C62.0474 21.0099 61.4384 20.8905 60.884 20.6636C60.4693 21.9327 59.4965 23.0053 58.1446 23.4973C55.8092 24.3473 53.2269 23.1432 52.3768 20.8078L48.2726 9.53149C47.4226 7.19609 48.6267 4.6138 50.9621 3.76378C53.2975 2.91377 55.8798 4.11791 56.7298 6.45331L57.942 9.78379L57.8304 4.59687Z" fill="#FFAC42"/>
<path d="M120 65.177C120 90.8702 94.0325 115 62 115C29.9675 115 4 90.8702 4 65.177C4 39.4839 29.9675 11 62 11C94.0325 11 120 39.4839 120 65.177Z" fill="#FFAC42"/>
<path fill-rule="evenodd" clip-rule="evenodd" d="M44.4434 33.319C44.1299 34.2098 42.8702 34.2098 42.5567 33.319L36.8398 17.071C41.5617 14.7041 46.6393 12.9372 51.9667 11.9369L44.4434 33.319ZM53.9173 11.6069L61.5567 33.319C61.8702 34.2098 63.1299 34.2098 63.4434 33.319L71.0296 11.7581C68.0872 11.2619 65.0715 11 62 11C59.2572 11 56.5587 11.2088 53.9173 11.6069ZM73.1083 12.1498L80.5567 33.319C80.8702 34.2098 82.1299 34.2098 82.4434 33.319L88.0078 17.5043C83.3635 15.0838 78.3625 13.2447 73.1083 12.1498Z" fill="#6B4A32"/>
<path fill-rule="evenodd" clip-rule="evenodd" d="M5.0558 55.9998C5.84259 52.521 7.05489 49.0585 8.64456 45.688L21.9225 52.0384C22.8233 52.4692 22.6058 53.8091 21.6149 53.9328L5.0558 55.9998ZM4.15247 68.5954C4.05141 67.4604 4 66.3203 4 65.1771C4 62.9068 4.20275 60.6147 4.59452 58.3224L20.6032 61.5078C21.6199 61.7101 21.6951 63.1353 20.7053 63.4434L4.15247 68.5954Z" fill="#6B4A32"/>
<path fill-rule="evenodd" clip-rule="evenodd" d="M119.885 68.1428C119.961 67.1574 120 66.1684 120 65.1771C120 63.0016 119.814 60.8061 119.454 58.6096L104.888 61.5078C103.872 61.7101 103.797 63.1353 104.786 63.4434L119.885 68.1428ZM115.627 46.2718C117.055 49.3957 118.159 52.5943 118.9 55.8081L103.877 53.9328C102.886 53.8091 102.668 52.4692 103.569 52.0384L115.627 46.2718Z" fill="#6B4A32"/>
<path fill-rule="evenodd" clip-rule="evenodd" d="M18.0598 96.9565C19.2709 81.3815 38.7043 69 62.4999 69C85.8154 69 104.943 80.8869 106.845 96.0176C96.2075 107.322 80.0686 115 62 115C44.4363 115 28.6959 107.745 18.0598 96.9565Z" fill="#FFE29C"/>
<circle cx="28.5" cy="76.5" r="7.5" fill="#FF8F75"/>
<circle cx="95.5" cy="76.5" r="7.5" fill="#FF8F75"/>
<circle cx="37" cy="58" r="9" fill="#6B4A32"/>
<circle cx="40.0383" cy="56.2739" r="3.11538" transform="rotate(-150 40.0383 56.2739)" fill="white"/>
<circle cx="35.8505" cy="61.7783" r="2.07692" transform="rotate(-150 35.8505 61.7783)" fill="white"/>
<circle cx="88" cy="58" r="9" fill="#6B4A32"/>
<circle cx="91.0383" cy="56.2739" r="3.11538" transform="rotate(-150 91.0383 56.2739)" fill="white"/>
<circle cx="86.8505" cy="61.7783" r="2.07692" transform="rotate(-150 86.8505 61.7783)" fill="white"/>
<path d="M63.0855 69V75.837C63.0855 78.0697 64.8954 79.8797 67.1282 79.8797H67.693C69.6138 79.8797 71.1709 78.3226 71.1709 76.4017V76.4017" stroke="#6B4A32" stroke-width="2" stroke-linecap="round" stroke-linejoin="round"/>
<path d="M63.0854 69V75.837C63.0854 78.0697 61.2755 79.8797 59.0427 79.8797H58.4779C56.5571 79.8797 55 78.3226 55 76.4017V76.4017" stroke="#6B4A32" stroke-width="2" stroke-linecap="round" stroke-linejoin="round"/>
<ellipse cx="63" cy="69.6118" rx="8" ry="4.61181" fill="#6B4A32"/>
<ellipse cx="58.6974" cy="67.5996" rx="1.15989" ry="1.11412" fill="white"/>
<circle cx="41.25" cy="74.25" r="1.25" fill="#6B4A32" fill-opacity="0.7"/>
<circle cx="45.25" cy="75.25" r="1.25" fill="#6B4A32" fill-opacity="0.7"/>
<circle cx="42.25" cy="78.25" r="1.25" fill="#6B4A32" fill-opacity="0.7"/>
<circle r="1.25" transform="matrix(-1 0 0 1 82.75 74.25)" fill="#6B4A32" fill-opacity="0.7"/>
<circle r="1.25" transform="matrix(-1 0 0 1 78.75 75.25)" fill="#6B4A32" fill-opacity="0.7"/>
<circle r="1.25" transform="matrix(-1 0 0 1 81.75 78.25)" fill="#6B4A32" fill-opacity="0.7"/>
<path d="M96.9304 19.0032C97.0253 18.9487 97.1185 18.8892 97.2097 18.8247C98.7677 17.722 99.1429 15.5735 98.0477 14.0259C96.9525 12.4783 94.8015 12.1176 93.2434 13.2203C93.0922 13.3273 92.9521 13.4442 92.8234 13.5695C92.7275 12.2362 91.8826 11.0204 90.574 10.54C88.8037 9.89016 86.8552 10.8322 86.222 12.644C85.8844 13.6099 85.9887 14.6281 86.4279 15.4667C86.2874 15.4494 86.1445 15.4402 85.9996 15.4398C84.0802 15.4345 82.5438 16.9587 82.5679 18.8443C82.592 20.7299 84.1674 22.2629 86.0868 22.2682C86.1904 22.2685 86.2928 22.2644 86.394 22.2559C86.3524 22.3485 86.3144 22.4438 86.2802 22.5416C85.6469 24.3534 86.5686 26.349 88.3389 26.9989C90.1091 27.6487 92.0576 26.7067 92.6909 24.8949C92.7471 24.734 92.7911 24.5716 92.8233 24.4089C93.4503 24.9746 94.2843 25.3216 95.1957 25.3242C97.1151 25.3295 98.6515 23.8053 98.6274 21.9197C98.6116 20.6878 97.9338 19.6064 96.9304 19.0032Z" fill="white"/>
<g style="mix-blend-mode:multiply">
<circle cx="91.3168" cy="19.027" r="2.58966" transform="rotate(79.3678 91.3168 19.027)" fill="#FED402"/>
</g>
<path d="M100.253 106.031C100.412 105.94 100.567 105.841 100.719 105.733C103.319 103.893 103.946 100.308 102.118 97.7249C100.29 95.1422 96.7007 94.5403 94.1005 96.3804C93.8481 96.559 93.6143 96.7541 93.3995 96.9631C93.2396 94.7381 91.8295 92.7092 89.6457 91.9076C86.6915 90.8231 83.4399 92.3951 82.3831 95.4187C81.8197 97.0306 81.9938 98.7297 82.7268 100.129C82.4924 100.1 82.2538 100.085 82.012 100.084C78.809 100.075 76.245 102.619 76.2852 105.766C76.3254 108.913 78.9545 111.471 82.1575 111.48C82.3304 111.48 82.5014 111.473 82.6702 111.459C82.6008 111.614 82.5374 111.773 82.4803 111.936C81.4235 114.959 82.9616 118.29 85.9158 119.374C88.87 120.459 92.1216 118.887 93.1784 115.863C93.2723 115.594 93.3457 115.323 93.3994 115.052C94.4458 115.996 95.8375 116.575 97.3585 116.579C100.562 116.588 103.125 114.045 103.085 110.898C103.059 108.842 101.928 107.038 100.253 106.031Z" fill="white"/>
<g style="mix-blend-mode:multiply">
<circle cx="90.8854" cy="106.071" r="4.32162" transform="rotate(79.3678 90.8854 106.071)" fill="#FED402"/>
</g>
<path d="M17.5133 73.55C11.6702 73.0369 8.35549 72.9065 2.34978 73.0611" stroke="#61432D" stroke-width="1.8" stroke-linecap="round" stroke-linejoin="round"/>
<path d="M16.959 82.5038C11.344 83.5302 8.25867 84.2596 2.91185 85.9393" stroke="#61432D" stroke-width="1.8" stroke-linecap="round" stroke-linejoin="round"/>
<path d="M16.6208 78.2153C10.7504 77.9797 7.88401 78.3449 2.0218 78.8457" stroke="#61432D" stroke-width="1.8" stroke-linecap="round" stroke-linejoin="round"/>
<path d="M106.513 73.55C112.356 73.0369 115.671 72.9065 121.677 73.0611" stroke="#61432D" stroke-width="1.8" stroke-linecap="round" stroke-linejoin="round"/>
<path d="M107.068 82.5038C112.683 83.5302 115.768 84.2596 121.115 85.9393" stroke="#61432D" stroke-width="1.8" stroke-linecap="round" stroke-linejoin="round"/>
<path d="M107.406 78.2153C113.276 77.9797 116.143 78.3449 122.005 78.8457" stroke="#61432D" stroke-width="1.8" stroke-linecap="round" stroke-linejoin="round"/>
</svg>
