<svg width="134" height="111" viewBox="0 0 134 111" fill="none" xmlns="http://www.w3.org/2000/svg">
<path d="M33.9263 1.63584C26.3573 3.41436 23.1038 40.1679 23.1038 40.1679L57.6579 32.6708C57.6579 32.6708 41.0747 -0.043863 33.9263 1.63584Z" fill="#C4C4C4"/>
<g style="mix-blend-mode:multiply">
<path d="M35.5092 7.9955C29.8744 9.31953 27.4523 36.6812 27.4523 36.6812L53.1765 31.0999C53.1765 31.0999 40.8309 6.74501 35.5092 7.9955Z" fill="#C4C4C4"/>
</g>
<path d="M96.3151 1.63584C103.884 3.41436 107.137 40.1679 107.137 40.1679L72.5834 32.6708C72.5834 32.6708 89.1667 -0.043863 96.3151 1.63584Z" fill="#C4C4C4"/>
<g style="mix-blend-mode:multiply">
<path d="M94.7322 7.9955C100.367 9.31953 102.789 36.6812 102.789 36.6812L77.0648 31.0999C77.0648 31.0999 89.4104 6.74501 94.7322 7.9955Z" fill="#C4C4C4"/>
</g>
<path d="M17.0195 47.7455C16.9703 47.8693 16.8757 47.9688 16.7559 48.0226C8.27843 51.8352 1.25253 59.9448 0.0248777 63.4776C-0.0783341 63.7747 0.153592 64.0569 0.462448 64.057C5.61537 64.0595 6.85029 64.1288 10.9427 66.0518C11.262 66.2018 11.3296 66.6359 11.0711 66.879L7.08503 70.6276C6.74093 70.9512 6.9895 71.5785 7.45634 71.6117C9.33681 71.7456 11.6617 72.3205 14.187 73.1668C14.3588 73.2244 14.4855 73.3747 14.5189 73.556C18.4489 94.8726 36.791 111 58.8249 111H71.7062C93.2648 111 111.289 95.5608 115.738 74.928C115.773 74.763 115.887 74.6254 116.041 74.5636C119.989 72.9785 123.754 71.8102 126.543 71.6117C127.01 71.5784 127.258 70.9512 126.914 70.6276L122.928 66.879C122.669 66.6359 122.737 66.2018 123.056 66.0518C127.149 64.1288 128.384 64.0595 133.537 64.057C133.845 64.0569 134.078 63.7777 133.975 63.4806C132.563 59.4075 123.43 49.2383 113.252 46.6027C113.102 46.5639 112.978 46.4574 112.915 46.3132C105.895 30.2202 90.0847 19 71.7062 19H58.8249C39.9059 19 23.7087 30.8899 17.0195 47.7455Z" fill="#CFCFCE"/>
<path fill-rule="evenodd" clip-rule="evenodd" d="M113.535 46.678C110.42 46.0049 107.264 45.8237 104.155 46.176C86.71 46.176 72.1453 62.8856 66.5795 85.8327C60.3758 62.8029 43.8055 47.0245 26.1548 47.0245C22.7307 47.0245 19.4175 47.4229 16.2687 48.2472C8.0105 52.1453 1.22894 60.0127 0.0248777 63.4776C-0.0783341 63.7747 0.153592 64.0569 0.462448 64.057C5.61537 64.0595 6.85029 64.1288 10.9427 66.0517C11.262 66.2018 11.3296 66.6359 11.0711 66.879L7.08503 70.6276C6.74093 70.9512 6.9895 71.5785 7.45634 71.6117C9.33681 71.7456 11.6617 72.3205 14.187 73.1668C14.3588 73.2244 14.4855 73.3747 14.5189 73.556C17.2073 88.138 26.6397 100.292 39.3846 106.516C39.4486 106.547 39.5127 106.578 39.5769 106.609C45.4142 109.425 51.9393 111 58.8249 111L64.2682 111L69 111L71.7062 111C78.4278 111 84.8059 109.499 90.5361 106.808C103.185 100.868 112.676 89.1278 115.738 74.928C115.773 74.763 115.887 74.6254 116.041 74.5636C119.989 72.9785 123.754 71.8102 126.543 71.6117C127.01 71.5784 127.258 70.9512 126.914 70.6276L122.928 66.879C122.669 66.6359 122.737 66.2018 123.056 66.0517C127.149 64.1288 128.384 64.0595 133.537 64.057C133.845 64.0569 134.078 63.7777 133.975 63.4806C132.576 59.4453 123.598 49.4264 113.535 46.678Z" fill="#F4F4F4"/>
<ellipse cx="36.5" cy="81.3" rx="5.5" ry="3.3" fill="#FFC7AF"/>
<ellipse cx="95.5" cy="81.3" rx="5.5" ry="3.3" fill="#FFC7AF"/>
<circle r="6.5" transform="matrix(-1 0 0 1 41.5 70.5)" fill="#282828"/>
<circle r="2.25" transform="matrix(-1 0 0 1 39.25 69.25)" fill="white"/>
<circle r="1.5" transform="matrix(-1 0 0 1 42.5 72.5)" fill="white"/>
<circle r="6.5" transform="matrix(-1 0 0 1 90.5 70.5)" fill="#282828"/>
<circle r="2.25" transform="matrix(-1 0 0 1 88.25 69.25)" fill="white"/>
<circle r="1.5" transform="matrix(-1 0 0 1 91.5 72.5)" fill="white"/>
<rect x="66.2634" y="83.5675" width="1.93315" height="8.35123" rx="0.966577" fill="#282828"/>
<ellipse cx="67.1913" cy="81.3212" rx="6.57272" ry="4.32117" fill="#282828"/>
<circle cx="63.8277" cy="79.4358" r="1.0439" fill="white"/>
<path d="M60.5 89C63.9797 92.1317 70.5203 92.1317 74 89" stroke="#282828" stroke-width="1.93315" stroke-linecap="round"/>
<path d="M21.6592 40.5238C23.4917 41.1918 25.9267 40.6353 27.2854 40.2158C27.8456 40.0428 28.0754 39.4123 27.7579 38.9194C26.988 37.7239 25.4823 35.7309 23.6498 35.0629C21.8173 34.3949 19.3822 34.9514 18.0236 35.3709C17.4634 35.5439 17.2335 36.1744 17.551 36.6674C18.321 37.8628 19.8267 39.8558 21.6592 40.5238Z" fill="#5EA985"/>
<path d="M36.1864 39.263C34.5289 40.2911 32.0316 40.2436 30.6159 40.1104C30.0321 40.0554 29.6784 39.4852 29.8885 38.9378C30.3981 37.6103 31.4651 35.3518 33.1226 34.3237C34.7801 33.2956 37.2775 33.3431 38.6932 33.4763C39.2769 33.5313 39.6307 34.1015 39.4205 34.6489C38.9109 35.9764 37.8439 38.2349 36.1864 39.263Z" fill="#5EA985"/>
<path d="M103.512 36.4856C105.515 38.2312 109.308 38.2602 111.036 38.1708C111.549 38.1443 111.925 37.7123 111.881 37.201C111.734 35.4767 111.186 31.7238 109.183 29.9782C107.179 28.2326 103.387 28.2035 101.658 28.2929C101.146 28.3194 100.77 28.7515 100.813 29.2627C100.961 30.9871 101.509 34.74 103.512 36.4856Z" fill="#5EA985"/>
<path d="M69.9579 80.2242C68.3852 79.4617 67.2202 77.5632 66.6217 76.391C66.3564 75.8715 66.6471 75.2719 67.2193 75.1584C68.5102 74.9024 70.7224 74.6413 72.2951 75.4038C73.8677 76.1664 75.0328 78.0649 75.6313 79.237C75.8966 79.7566 75.6059 80.3561 75.0337 80.4696C73.7427 80.7256 71.5306 80.9867 69.9579 80.2242Z" fill="#5EA985"/>
<path d="M108.154 58.151C105.741 59.2635 102.093 58.2259 100.46 57.6546C99.9753 57.4852 99.7354 56.9647 99.9211 56.4864C100.548 54.873 102.127 51.4251 104.54 50.3126C106.953 49.2001 110.601 50.2378 112.235 50.8091C112.719 50.9785 112.959 51.499 112.774 51.9773C112.147 53.5906 110.567 57.0385 108.154 58.151Z" fill="#5EA985"/>
<path fill-rule="evenodd" clip-rule="evenodd" d="M25.9901 35.4731C26.0502 35.2015 26.1184 34.9389 26.1933 34.6881C25.9833 34.8445 25.7601 34.9987 25.5257 35.1483C23.7599 36.2747 22.0241 36.7107 21.6486 36.1221C21.2731 35.5335 22.4002 34.1433 24.1659 33.0168C24.4004 32.8673 24.6344 32.7299 24.8647 32.6054C24.6056 32.5676 24.3387 32.5188 24.0672 32.4587C22.0221 32.0067 20.4864 31.0876 20.6371 30.4059C20.7878 29.7242 22.5678 29.538 24.6129 29.9901C24.8845 30.0501 25.1471 30.1184 25.3979 30.1933C25.2415 29.9833 25.0873 29.7601 24.9377 29.5257C23.8113 27.7599 23.3753 26.0241 23.9639 25.6486C24.5525 25.2731 25.9428 26.4002 27.0692 28.166C27.2187 28.4004 27.3561 28.6344 27.4806 28.8647C27.5184 28.6056 27.5672 28.3387 27.6273 28.0672C28.0793 26.0221 28.9984 24.4864 29.6801 24.6371C30.3618 24.7878 30.548 26.5678 30.0959 28.6129C30.0358 28.8845 29.9676 29.1471 29.8927 29.3979C30.1026 29.2415 30.3259 29.0873 30.5603 28.9377C32.3261 27.8113 34.0619 27.3753 34.4374 27.9639C34.8128 28.5525 33.6858 29.9428 31.92 31.0692C31.6856 31.2188 31.4517 31.3561 31.2214 31.4806C31.4804 31.5184 31.7473 31.5672 32.0188 31.6272C34.0639 32.0793 35.5996 32.9984 35.4489 33.6801C35.2982 34.3618 33.5182 34.548 31.4731 34.0959C31.2015 34.0358 30.9389 33.9676 30.6881 33.8927C30.8445 34.1026 30.9987 34.3259 31.1483 34.5604C32.2747 36.3261 32.7107 38.0619 32.1221 38.4374C31.5335 38.8129 30.1432 37.6858 29.0168 35.9201C28.8673 35.6856 28.7299 35.4517 28.6054 35.2214C28.5676 35.4804 28.5188 35.7473 28.4588 36.0188C28.0067 38.0639 27.0876 39.5996 26.4059 39.4489C25.7242 39.2982 25.538 37.5182 25.9901 35.4731Z" fill="white"/>
<circle cx="28.043" cy="32.043" r="1.73816" transform="rotate(-167.535 28.043 32.043)" fill="#FFCE05"/>
</svg>
