<svg width="104" height="136" viewBox="0 0 104 136" fill="none" xmlns="http://www.w3.org/2000/svg">
<path d="M7.21411 27.8161C5.71989 20.6252 9.63421 8.7264 11.6703 3.26058C12.1946 1.85304 13.9515 1.49788 14.971 2.60096C18.6005 6.52814 25.669 14.8619 27.1234 21.6311C29.1673 31.1436 18.6234 44.6311 18.6234 44.6311C18.6234 44.6311 9.16844 37.2214 7.21411 27.8161Z" fill="#F5F5F5"/>
<g style="mix-blend-mode:multiply">
<path fill-rule="evenodd" clip-rule="evenodd" d="M11.3514 4.12796C15.1576 8.43133 20.8368 15.6433 22.1234 21.6312C23.5961 28.4852 18.5337 37.4029 15.5891 41.852C17.324 43.6128 18.6234 44.6311 18.6234 44.6311C18.6234 44.6311 29.1673 31.1436 27.1234 21.6311C25.6689 14.8619 18.6005 6.52813 14.9709 2.60095C13.9515 1.49787 12.1946 1.85303 11.6702 3.26057C11.5684 3.53406 11.4618 3.82365 11.3514 4.12796Z" fill="#F5F5F5"/>
</g>
<path d="M96.4159 27.8161C97.9101 20.6252 93.9958 8.7264 91.9597 3.26058C91.4354 1.85304 89.6785 1.49788 88.659 2.60096C85.0295 6.52814 77.9611 14.8619 76.5066 21.6311C74.4627 31.1436 85.0066 44.6311 85.0066 44.6311C85.0066 44.6311 94.4616 37.2214 96.4159 27.8161Z" fill="#F5F5F5"/>
<g style="mix-blend-mode:multiply">
<path fill-rule="evenodd" clip-rule="evenodd" d="M92.2786 4.12796C88.4725 8.43133 82.7932 15.6433 81.5066 21.6312C80.0339 28.4852 85.0963 37.4029 88.0409 41.852C86.306 43.6128 85.0066 44.6311 85.0066 44.6311C85.0066 44.6311 74.4627 31.1436 76.5066 21.6311C77.9611 14.8619 85.0296 6.52813 88.6591 2.60095C89.6785 1.49787 91.4354 1.85303 91.9598 3.26057C92.0616 3.53406 92.1682 3.82366 92.2786 4.12796Z" fill="#F5F5F5"/>
</g>
<path d="M4.67345 61.2729C2.17103 36.1844 21.874 14.4183 47.087 14.4183H56.817C82.03 14.4183 101.733 36.1843 99.2306 61.2728L96.7336 86.3073C94.5597 108.101 76.2223 124.701 54.32 124.701H49.584C27.6818 124.701 9.34431 108.101 7.17048 86.3073L4.67345 61.2729Z" fill="#F5F5F5"/>
<path fill-rule="evenodd" clip-rule="evenodd" d="M26.8228 19.5282C31.2483 17.1315 36.1545 15.493 41.3752 14.7962C36.7348 25.4133 34.7497 32.089 33.1667 43.6311C28.8315 34.0096 27.8124 27.7497 26.8228 19.5282ZM77.2687 19.6303C76.2845 27.8758 74.8267 34.0868 69.8334 43.6311C67.7193 32.5992 65.4591 24.2864 60.9431 14.6146C66.8317 15.1779 72.3503 16.9347 77.2687 19.6303ZM59.6223 14.5087C53.6707 25.6893 52.9522 35.9678 53 47.6311C47.012 36.6917 43.7183 26.4145 42.5184 14.6592C44.018 14.5001 45.5422 14.4183 47.087 14.4183H56.8171C57.7601 14.4183 58.6955 14.4488 59.6223 14.5087Z" fill="#1F1F1F"/>
<path fill-rule="evenodd" clip-rule="evenodd" d="M4.5052 54.9839C4.4089 57.049 4.46161 59.149 4.67346 61.2729L4.78891 62.4304L19.4559 59.0626L4.5052 54.9839ZM5.22323 48.9451H18.9165L7.02189 42.4515C6.25676 44.5473 5.65243 46.7171 5.22323 48.9451ZM6.07048 75.279L18.5 68.1337H5.35778L6.07048 75.279Z" fill="#1F1F1F"/>
<path fill-rule="evenodd" clip-rule="evenodd" d="M98.5463 68.1337L97.8878 74.7352L86.4042 68.1337H98.5463ZM99.4106 55.2535C99.4903 57.2316 99.4332 59.2413 99.2306 61.2728L99.1375 62.2059L85.4483 59.0626L99.4106 55.2535ZM97.0459 42.9081C97.7339 44.862 98.2827 46.8785 98.6808 48.9451H85.9877L97.0459 42.9081Z" fill="#1F1F1F"/>
<path fill-rule="evenodd" clip-rule="evenodd" d="M93.5649 98.7294C87.0424 114.105 71.819 124.701 54.32 124.701H49.584C32.1864 124.701 17.0381 114.227 10.4534 98.9962C16.25 88.4422 27.4704 81.2887 40.3616 81.2887H63.8048C76.5871 81.2887 87.7267 88.3218 93.5649 98.7294Z" fill="#1F1F1F"/>
<path d="M63.3608 122.258C66.5212 124.731 72.3575 124.309 72.3575 124.309C72.3575 124.309 71.0775 118.914 67.9171 116.441C64.7566 113.968 59.0198 113.872 59.0198 113.872C59.0198 113.872 60.2003 119.785 63.3608 122.258Z" fill="#A6C65A"/>
<path d="M65.6066 122.217C66.7653 127.267 62.827 134.072 62.827 134.072C62.827 134.072 56.9219 129.828 55.7632 124.777C54.6045 119.726 58.0833 113.542 58.0833 113.542C58.0833 113.542 64.4479 117.166 65.6066 122.217Z" fill="#CCE772"/>
<path d="M34.0724 31.4727C38.6755 34.5703 48.076 32.4804 48.076 32.4804C48.076 32.4804 45.2215 23.5965 40.6185 20.4989C36.0154 17.4014 26.8753 18.7143 26.8753 18.7143C26.8753 18.7143 29.4693 28.3752 34.0724 31.4727Z" fill="#A6C65A"/>
<path d="M39.8376 30.3238C43.0221 37.87 39.7109 49.1096 39.7109 49.1096C39.7109 49.1096 30.2184 43.7299 27.0339 36.1836C23.8494 28.6374 26.7197 18.4415 26.7197 18.4415C26.7197 18.4415 36.653 22.7775 39.8376 30.3238Z" fill="#CCE772"/>
<path d="M41 108.631C45.7273 116.631 62.5354 116.631 67 108.631" stroke="#F5F5F5" stroke-width="2" stroke-linecap="round" stroke-linejoin="round"/>
<ellipse cx="38.5" cy="92.6311" rx="2.5" ry="3" fill="#F5F5F5"/>
<ellipse cx="68.5" cy="92.6311" rx="2.5" ry="3" fill="#F5F5F5"/>
<circle cx="21" cy="75.6311" r="6" fill="#FFDED0"/>
<circle cx="82.8048" cy="75.6311" r="6" fill="#FFDED0"/>
<ellipse rx="6.5" ry="7.5" transform="matrix(-1 0 0 1 31.5 61.1312)" fill="#181818"/>
<circle cx="34" cy="59" r="2" fill="white"/>
<ellipse rx="6.5" ry="7.5" transform="matrix(-1 0 0 1 72.5 61.1312)" fill="#181818"/>
<circle cx="75" cy="59" r="2" fill="white"/>
</svg>
